<?xml version="1.0" encoding="utf-8"?>
<!-- Generator: Adobe Illustrator 21.0.0, SVG Export Plug-In . SVG Version: 6.00 Build 0)  -->
<svg version="1.1" id="Слой_1" xmlns="http://www.w3.org/2000/svg" xmlns:xlink="http://www.w3.org/1999/xlink" x="0px" y="0px"
	 width="405.1px" height="512px" viewBox="0 0 405.1 512" style="enable-background:new 0 0 405.1 512;" xml:space="preserve">
<style type="text/css">
	.st0{fill:#323335;}
</style>
<g>
	<path class="st0" d="M276.5,227.6c-0.9,0-1.8-0.1-2.6-0.4c-4.3-1.5-6.6-6.2-5.2-10.5c4.6-13.5,17.2-22.5,31.5-22.5
		c3.6,0,7.2,0.6,10.6,1.7c1.7,0.6,3.5,0.9,5.4,0.9c7.2,0,13.5-4.6,15.8-11.3c1.1-3.3,4.3-5.6,7.8-5.6c0.9,0,1.8,0.1,2.6,0.4
		c2.1,0.7,3.8,2.2,4.7,4.2c1,2,1.1,4.2,0.4,6.3c-4.6,13.5-17.2,22.5-31.5,22.5c-3.6,0-7.2-0.6-10.6-1.8c-1.7-0.6-3.5-0.9-5.3-0.9
		c-7.2,0-13.5,4.6-15.8,11.3C283.2,225.4,280.1,227.6,276.5,227.6z"/>
	<path class="st0" d="M297.9,164.6c-0.9,0-1.8-0.1-2.6-0.4c-2.1-0.7-3.8-2.2-4.7-4.2c-1-2-1.1-4.2-0.4-6.3
		c2.9-8.4,8.8-15.2,16.7-19.1c4.6-2.3,9.5-3.4,14.6-3.4c3.6,0,7.2,0.6,10.7,1.8c1.7,0.6,3.5,0.9,5.4,0.9h0c7.2,0,13.5-4.6,15.8-11.3
		c1.1-3.4,4.3-5.6,7.8-5.6c0.9,0,1.8,0.2,2.7,0.4c4.3,1.5,6.6,6.2,5.2,10.5c-4.6,13.5-17.2,22.5-31.5,22.5c-3.6,0-7.2-0.6-10.6-1.8
		c-1.8-0.6-3.6-0.9-5.4-0.9c-2.6,0-5,0.6-7.4,1.7c-4,2-7,5.4-8.4,9.6C304.6,162.4,301.4,164.6,297.9,164.6z"/>
	<path class="st0" d="M319.3,101.7c-0.9,0-1.8-0.1-2.7-0.4c-4.3-1.5-6.6-6.2-5.1-10.5c4-11.8,15.1-19.7,27.5-19.7
		c3.1,0,6.3,0.5,9.3,1.5c1.3,0.5,2.7,0.7,4.1,0.7c1.9,0,3.8-0.4,5.5-1.3c3-1.5,5.3-4,6.3-7.2c1.1-3.3,4.3-5.6,7.8-5.6
		c0.9,0,1.8,0.1,2.7,0.4c2.1,0.7,3.8,2.2,4.7,4.2c1,2,1.1,4.2,0.4,6.3c-2.5,7.3-7.7,13.3-14.6,16.7c-4,2-8.4,3-12.8,3
		c-3.2,0-6.3-0.5-9.4-1.6c-1.3-0.4-2.6-0.7-4-0.7c-5.4,0-10.2,3.4-11.9,8.5C326,99.4,322.8,101.7,319.3,101.7z"/>
	<path class="st0" d="M66,512c-27,0-49.3-21.1-50.6-48.1L0,245.2c-0.1-2.9,0.6-5.8,2.1-8.4l0.2-0.3l-0.1-0.3
		c-3.2-12.9-2.5-24,2.1-32.7c8-15,25.1-21.6,39.2-25.7l1.2-0.4l-0.8-1c-4.1-4.6-12.4-12.4-22.7-12.4c-0.1,0-0.3,0-0.4,0
		c-0.1,0-0.2,0-0.3,0l-0.1,0c-4.5,0-8.1-3.5-8.3-8c-0.1-4.5,3.4-8.3,8-8.5c0.4,0,0.9,0,1.3,0c16,0,28.2,10.7,34.1,17.1l1.3-0.9
		c-1.9-4.4-2.9-9-2.9-13.8c0-8,2.7-15.7,7.7-21.9l0.3-0.4l-0.2-0.4c-2-5.2-3-10.6-3-16c0-20.3,13.7-38,33.3-43.1l0.6-0.2l0-0.6
		c0.1-17.7,12.2-33.3,29.3-38l0.5-0.1l0.1-0.5c3.5-14.7,16.4-25,31.6-25c5.4,0,10.8,1.4,15.6,4.1l0.4,0.2l0.4-0.2
		c4.5-2.7,9.7-4.1,15.1-4.1c1.2,0,2.4,0.1,3.6,0.2c11.7,1.4,21.8,10,25.2,21.5c0.3,0.9,0.5,1.8,0.7,2.7l0.1,0.5l0.5,0.1
		c16.5,3.4,29.5,16.2,32.9,32.7l0.1,0.4l0.4,0.2c14.5,6.9,24.8,19.9,28.2,35.7l0.5,2.3l3.6-7.7c15.5-32.8,34.7-73.7,61.5-87.5
		c6.5-3.4,13-5.1,19.3-5.1c6.5,0,12.8,1.8,18.5,5.5c16.6,10.4,24.9,33,24.4,49.9c-1.4,54.3-11.2,111.4-29.2,169.8l-0.3,0.9l0.9,0.1
		c1.8,0.2,3.4,0.8,4.8,1.8c3.2,2.2,5,5.9,4.8,9.7c0,0.1,0,0.2,0,0.2L370.4,464c-1.4,26.9-23.6,48-50.6,48H66z M31.9,462.9
		c0.9,18.3,16,32.6,34.2,32.6h253.7c18.2,0,33.3-14.3,34.2-32.5l15.1-217.4l-2.7,1.2l0,0c-0.2,0.1-0.3,0.2-0.5,0.4
		c-0.2,0.1-0.3,0.2-0.4,0.3l-17.7,7.9c-7.1,4.1-15.1,6.3-23.2,6.3c0,0-0.1,0-0.1,0c-0.1,0-0.2,0-0.3,0H324c-8.3,0-16.5-2.3-23.6-6.5
		l-6.4-3.9c-4.4-2.7-9.6-4.1-14.8-4.2c-5.3,0.1-10.4,1.5-14.8,4.2l-6.4,3.9c-3.2,1.9-6.8,3.4-11.4,4.7c-0.6,0.2-1.1,0.3-1.7,0.4
		l-1.2,0.3c-1.2,0.3-2.4,0.6-3.5,0.7c-1.9,0.3-3.8,0.4-6,0.4c-0.6,0-1.2,0-1.8,0c-0.1,0-0.2,0-0.3,0l-0.2,0
		c-7.7-0.3-15.3-2.5-21.7-6.4l-6.4-3.9c-4.4-2.7-9.6-4.1-14.8-4.2c-5.3,0.1-10.4,1.5-14.8,4.2l-6.4,3.9c-0.2,0.1-0.4,0.2-0.7,0.2
		c-0.2,0.1-0.5,0.1-0.7,0.2l-0.1,0l-0.1,0c-5.4,3.1-11.3,5-17.5,5.7c-0.1,0-0.2,0-0.3,0.1c-0.5,0-1,0.1-1.5,0.1c-0.3,0-0.6,0-0.8,0
		c-0.9,0-1.7,0.1-2.6,0.1c-8.3,0-16.5-2.2-23.5-6.4l-6.4-3.9c-4.4-2.7-9.6-4.1-14.8-4.2c-5.3,0.1-10.4,1.5-14.8,4.2l-3.1,1.9
		c-8.1,4.9-17.4,7.5-26.9,7.5h-0.6c-9.5,0-18.8-2.6-26.9-7.5l-9.2-5.5L31.9,462.9z M279.4,230.6c8.3,0,16.5,2.3,23.6,6.6l6.4,3.9
		c4.4,2.7,9.6,4.1,14.8,4.2c5.3-0.1,10.4-1.5,14.8-4.2c0.3-0.2,0.5-0.3,0.9-0.5l15.7-7l0.1-0.3c1.8-5.1,3.1-9,3.8-11
		c17.9-57.5,27.7-113.9,29.1-167.4c0.3-11.8-6-28.8-16.7-35.5c-3.1-1.9-6.4-2.9-9.8-2.9c-3.6,0-7.5,1.1-11.7,3.2
		C328.6,31,310,70.6,296.3,99.6c-4.1,8.7-8,17-11.6,23.7c-9.3,17.4-18.1,36.2-26.2,55.8c-0.8,2-1.6,3.9-2.3,5.9
		c-0.3,0.9-0.7,1.8-1,2.7c-2.7,6.8-5.1,13.2-7.3,19.4l-0.1,0.2c-1.1,3-2.2,6.1-3.2,9.1c-3,8.8-5.6,17-7.9,25c-0.1,0.3-0.2,0.6-0.3,1
		c-0.1,0.5-0.3,0.9-0.4,1.4l-0.3,1.2l1.2-0.1c4.7-0.5,8.5-1.8,11.9-3.8l6.4-3.9c7.1-4.3,15.3-6.5,23.6-6.5l0.3,0
		C279.2,230.6,279.2,230.6,279.4,230.6L279.4,230.6z M98.6,230.6c8.3,0,16.5,2.3,23.6,6.6l6.4,3.9c2.9,1.7,6.3,3,10.1,3.6
		c0.5,0.1,1,0.2,1.5,0.2l0.7,0.1l0.1-0.7c3-15.5,0.6-33-6.1-44.7c-1.4-2.5-2.9-5-4.4-7.3c-0.3-0.4-0.5-0.8-0.8-1.1
		c-0.2-0.3-0.4-0.5-0.6-0.8l-0.2-0.3c-0.9-1.4-1.9-2.9-2.8-4.2c-0.4-0.5-0.7-0.9-1.1-1.4c-0.2-0.3-0.4-0.5-0.6-0.8l-0.5-0.7
		c-0.7-0.9-1.4-1.9-2.1-2.7c-0.4-0.5-0.8-1-1.3-1.4c-0.2-0.2-0.4-0.5-0.6-0.7l-0.5-0.5c-0.6-0.7-1.2-1.4-1.8-2
		c-0.5-0.5-1-0.9-1.5-1.4c-0.2-0.2-0.4-0.4-0.6-0.6l-0.5-0.5c-0.5-0.5-1-0.9-1.6-1.4c-0.6-0.5-1.1-0.9-1.7-1.2l-0.6-0.4
		c-0.2-0.1-0.4-0.3-0.6-0.4c-0.4-0.3-0.8-0.6-1.3-0.9c-0.7-0.4-1.3-0.7-1.9-1l-0.5-0.2c-0.2-0.1-0.4-0.2-0.6-0.3
		c-0.4-0.2-0.7-0.4-1.1-0.5c-0.9-0.4-1.8-0.6-2.6-0.8c-0.1,0-0.3-0.1-0.4-0.1c-0.3-0.1-0.6-0.2-1-0.2c-1.1-0.2-2.2-0.3-3.3-0.3
		c-0.7,0-1.5,0-2.2,0.1c-0.1,0-0.2,0-0.3,0l-0.1,0c-5.8,0.8-12.3,4-19.7,10c-2.6,2.1-5,4.3-7.4,6.5c-5.6,5.3-12.5,9.3-19.9,11.4
		c-16.3,4.7-25.8,10.3-29.7,17.7c-2.5,4.8-3.1,10.7-1.6,18.1l0.1,0.5l0.5,0.1c1.5,0.3,3,0.8,4.4,1.6v0.3l0.6,0l12,7.2
		c5.5,3.3,11.7,5,18.1,5.1c6.4-0.1,12.7-1.8,18.1-5.1l3.1-1.9c7.1-4.3,15.3-6.5,23.6-6.5l0.3,0C98.4,230.6,98.5,230.6,98.6,230.6
		L98.6,230.6z M189,230.6c8.3,0,16.5,2.3,23.6,6.6l6.9,4.1l0.3-1c2.3-7.8,4.7-15.8,7.5-24.3c0.3-1,0.7-2,1-3
		c0.2-0.7,0.5-1.4,0.7-2.1c0.8-2.4,1.6-4.7,2.5-7.1l0.7-1.9l-1.8,1c-4.2,2.2-8.3,4.8-12.6,7.9c-14.7,10.5-27.4,14.9-42.6,14.9
		c-2.3,0-4.9-0.2-7.4-0.4l-1.3-0.1l2.2,9.9l0.9-0.4c4.4-2,9.2-3.3,14.2-3.8c0.4,0,0.9-0.1,1.3-0.1c0.2,0,0.5,0,0.7,0
		c0.3,0,0.6,0,0.8-0.1c0.6,0,1.1-0.1,1.7-0.1c0,0,0.2,0,0.2,0C188.8,230.6,188.9,230.6,189,230.6L189,230.6z M172.5,140.8
		c-0.7,1-1.5,1.9-2.3,2.9l-0.7,0.8c-7.9,10.1-16.1,20.5-12.3,37.9l5.6,25.7l0.6,0.1c4.4,0.6,8.2,0.9,11.8,0.9
		c11.8,0,21.1-3.3,33.1-11.8c11.5-8.2,21.1-13,31-15.5l0.4-0.1l0.2-0.4c0.3-0.7,0.6-1.5,0.9-2.2c0.3-0.6,0.5-1.2,0.8-1.8
		c3.9-9.8,7.5-18.2,10.9-25.8l0.2-0.4l-0.2-0.3c-1.2-2.2-2.6-4-3.9-5.6c-0.8-1-1.7-1.9-2.5-2.7c-0.7-0.7-1.6-1.5-2.5-2.3
		c-0.9-0.7-1.9-1.5-3-2.3c-0.8-0.5-1.6-1.1-2.7-1.8l-0.5-0.3c-0.9-0.6-1.8-1.1-2.7-1.6c-0.4-0.2-0.8-0.5-1.3-0.7l-0.5-0.3
		c-1.2-0.7-2.5-1.3-3.7-2l-0.8-0.4c-1.2-0.6-2.3-1.2-3.5-1.9c-4-2.3-6.9-5.6-8.6-9.6c-0.4-1-0.7-2.1-0.9-3.2l-0.2-0.8l-39.3,8.6
		l0.2,0.8c1,4.5,0.4,9-1.6,12.9c-0.5,1-1.1,1.9-1.8,2.8L172.5,140.8L172.5,140.8z M98.1,148.9c0.4,0,0.8,0,1.2,0.1
		c0.3,0,0.6,0.1,1,0.1c0.4,0,0.8,0,1.2,0c0.6,0,1.2,0,1.8,0.1c0.1,0,0.3,0.1,0.4,0.1c0.2,0,0.3,0.1,0.5,0.1c0.1,0,0.2,0,0.3,0
		c0.1,0,0.1,0,0.2,0c1.4,0.3,2.9,0.6,4.4,1.1c0.2,0.1,0.5,0.2,0.7,0.3c0.2,0.1,0.4,0.2,0.6,0.2c1.4,0.5,2.7,1.1,4,1.7
		c0.6,0.3,1.2,0.6,1.9,1c1.2,0.6,2.4,1.4,3.8,2.3c0.2,0.1,0.4,0.3,0.6,0.4c0.3,0.2,0.5,0.3,0.8,0.5c1.6,1.2,3.3,2.5,5,4.1
		c0.3,0.2,0.5,0.5,0.8,0.7c0.2,0.2,0.3,0.3,0.5,0.5c1.3,1.2,2.6,2.6,4,4c0.5,0.5,1,1.1,1.5,1.6c1.7,2,3.3,3.9,4.7,5.7
		c0.1,0.1,0.1,0.2,0.2,0.3c0,0,0.3,0.3,0.3,0.4l1.4,1.5v-2.1c0-0.7,0.1-1.4,0.1-2.1c0-0.3,0.1-0.7,0.1-1c0-0.3,0-0.6,0-0.9
		c0-0.5,0.1-1,0.1-1.6c0.2-1.8,0.5-3.7,1-5.6c0-0.2,0.1-0.4,0.1-0.5c0-0.2,0.1-0.3,0.1-0.5c0.5-2,1.2-4,2-6.1
		c0.2-0.4,0.4-0.8,0.5-1.2l0.2-0.5c0.7-1.5,1.2-2.7,1.9-3.9c0.4-0.7,0.7-1.3,1.1-1.9c0.7-1.2,1.3-2.3,2-3.3l0.2-0.3
		c0.3-0.5,0.6-1,1-1.5c0.6-0.9,1.3-1.9,2.2-3.1c0.1-0.2,0.3-0.4,0.4-0.6c0.2-0.3,0.4-0.5,0.6-0.8c1-1.4,2.1-2.7,3.1-4l0.6-0.7
		c0.8-1,1.6-2,2.3-3l0.2-0.2v-0.1c0.5-0.8,0.7-1.4,0.4-2.4c-0.5-1.4-1.8-2.7-3.4-3.4c-5.5-2.3-9.5-7.2-10.7-13l-0.5-2.4v-0.1l0-0.1
		l-0.5-2.4c-1.1-4.8-0.2-9.8,2.5-13.9c2.7-4.2,6.8-7,11.6-8.1l25.9-5.7l26.5-5.8h0l2.5-0.6c1.3-0.3,2.6-0.4,4-0.4
		c3.5,0,6.9,1,9.9,2.9c4.2,2.7,7,6.8,8.1,11.6l1.1,5c1.2,5.6-0.3,11.6-4.1,16c-1.1,1.3-1.7,3.1-1.4,4.7c0.2,1,0.6,1.7,1.4,2.1
		c1.2,0.7,2.4,1.3,3.6,1.9l0.6,0.3c5.3,2.8,11.8,6.2,17.9,11.4l0.7,0.6l0.5-0.7c3.8-5.5,5.9-11.9,6.1-18.4
		c0.3-15.3-9.2-29-23.6-34.1l-5.1-1.8l-0.4-5.4c-0.9-13.4-12.1-23.9-25.5-23.9h-9.3l1-9.2c0.2-1.7,0.1-3.4-0.5-5.1
		c-1.5-5.1-6.1-9.2-11.3-9.8c-0.5-0.1-1.1-0.1-1.6-0.1c-3.6,0-7,1.4-9.6,3.9l-5.5,5.5l-5.8-5.2c-2.1-1.9-5.7-4.2-10.6-4.2
		c-8.7,0-15.7,6.8-16,15.4v8.3l-7.6,0.6c-12,0.9-21.4,11.1-21.4,23.1c0,1.7,0.2,3.6,0.7,5.4l2.3,9.7l-10,0.4
		c-15.1,0.6-26.9,12.9-26.9,28c0,4.9,1.3,9.7,3.8,14l3.5,6l-5.4,4.4c-4.3,3.5-6.7,8.7-6.7,14.2c0,2.3,0.4,4.6,1.3,6.8l0.4,0.9
		l0.8-0.5c4.1-2.7,8.3-4.8,12.6-6.2c0.1,0,0.3-0.1,0.4-0.1l0.3-0.1c1.8-0.6,3.5-1,5.1-1.3c0.4-0.1,0.9-0.1,1.3-0.2
		c0.2,0,0.5-0.1,0.7-0.1c1.3-0.2,2.6-0.3,4-0.3c0,0,0,0,0,0c0.1,0,0.3,0,0.4,0C98,148.9,98,148.9,98.1,148.9z M215.8,89.3
		c-0.3,0-0.5,0-0.9,0.1l-50,10.9c-2.4,0.5-4,3-3.5,5.4c0.5,2.1,2.3,3.6,4.5,3.6c0.3,0,0.6,0,0.9-0.1l49.9-10.9
		c1.6-0.3,2.4-1.4,2.8-2c0.4-0.6,1-1.8,0.6-3.4C219.8,90.8,217.9,89.3,215.8,89.3z"/>
	<path class="st0" d="M53.4,387.1c-4.5,0-8.2-3.7-8.2-8.2c0-4.5,3.7-8.2,8.2-8.2h63.3c4.5,0,8.2,3.7,8.2,8.2c0,4.5-3.7,8.2-8.2,8.2
		H53.4z"/>
	<path class="st0" d="M53.4,423.2c-4.5,0-8.2-3.7-8.2-8.2s3.7-8.2,8.2-8.2h81.3c4.5,0,8.2,3.7,8.2,8.2s-3.7,8.2-8.2,8.2H53.4z"/>
	<path class="st0" d="M53.4,459.4c-4.5,0-8.2-3.7-8.2-8.2c0-4.5,3.7-8.2,8.2-8.2h99.4c4.5,0,8.2,3.7,8.2,8.2c0,4.5-3.7,8.2-8.2,8.2
		H53.4z"/>
	<path class="st0" d="M189,459.4c-4.5,0-8.2-3.7-8.2-8.2c0-4.5,3.7-8.2,8.2-8.2h18.1c4.5,0,8.2,3.7,8.2,8.2c0,4.5-3.7,8.2-8.2,8.2
		H189z"/>
</g>
</svg>
