<?xml version="1.0" encoding="utf-8"?>
<!-- Generator: Adobe Illustrator 21.0.0, SVG Export Plug-In . SVG Version: 6.00 Build 0)  -->
<svg version="1.1" id="Layer_1" xmlns="http://www.w3.org/2000/svg" xmlns:xlink="http://www.w3.org/1999/xlink" x="0px" y="0px"
	 width="446.1px" height="512px" viewBox="0 0 446.1 512" style="enable-background:new 0 0 446.1 512;" xml:space="preserve">
<style type="text/css">
	.st0{fill:#323335;}
</style>
<g>
	<path class="st0" d="M446.1,58.8l0-42.7c0-6.6-7.5-10.4-12.8-6.4L399,35.4c-0.6,0.4-1,1-1.3,1.6l-47.9,111.6l0,0H311h-49.6l-15-33
		l31.1,0l15.3,33l18.2,0l-15.3-33l10,0c18.2,0,33-14.8,33-33v-33c0,0,0,0,0,0l8.5,0c4.4,0,8-3.6,8-8V8c0-4.4-3.6-8-8-8h-33.5
		c-4.4,0-8,3.6-8,8v33.5c0,4.4,3.6,8,8,8h8.5c0,0,0,0,0,0l0,33.2c0,9-7.3,16.4-16.4,16.4l-17.7,0.1l-21.1-45.7c0,0,0,0,0,0l9.8-4.9
		c6.1-3,5.8-11.8-0.4-14.5L211.9,6.4l-21.2,67c-2.1,6.5,4.4,12.4,10.7,9.8l10.1-4.2c0,0,0,0,0,0l9.4,20.6
		c-17.2,1.2-30.8,15.3-30.8,32.8v16.4c0,0,0,0,0,0h-33c0,0,0,0,0,0l0-10.3c0-1.3,0.7-2.5,1.7-3.3c0,0,0.1-0.1,0.1-0.1
		c0,0,0.1,0,0.1,0c3.6-2.6,7-5.5,10-8.6c0,0,0,0,0.1-0.1c0.4-0.4,0.8-0.9,1.3-1.3c0.4-0.4,0.8-0.9,1.2-1.3c0.3-0.3,0.6-0.6,0.8-1
		c0.6-0.7,1.2-1.5,1.8-2.2c0.1-0.1,0.1-0.1,0.2-0.2c10.1-12.9,15.9-29,15.9-45.8c0-0.3,0-0.5,0-0.8l0-0.2c0-0.7,0-1.3-0.1-1.9
		c0-0.4,0-0.8,0-1.2c0-0.9-0.1-1.7-0.2-2.6c0-0.4-0.1-0.8-0.1-1.1c-0.1-0.9-0.2-1.8-0.3-2.6c0-0.4-0.1-0.7-0.1-1.1
		c-0.1-0.9-0.3-1.8-0.5-2.7c-0.1-0.3-0.1-0.6-0.2-1c-0.2-0.9-0.4-1.8-0.6-2.7c-0.1-0.3-0.1-0.6-0.2-0.8c-0.2-0.9-0.5-1.9-0.8-2.8
		c-0.1-0.2-0.1-0.5-0.2-0.7c-0.3-1-0.6-1.9-1-2.9c-0.1-0.2-0.1-0.3-0.2-0.5c-0.4-1-0.8-2-1.2-3c0-0.1-0.1-0.2-0.1-0.3
		c-0.4-1-0.9-2.1-1.4-3.1c0,0,0-0.1-0.1-0.2C171,17.2,145.5,0,116.1,0c0,0,0,0,0,0s0,0,0,0c-14.2,0-27.4,4-38.7,10.9c0,0,0,0,0,0
		c-0.8,0.5-1.6,1-2.4,1.6c-0.3,0.2-0.6,0.4-0.8,0.6c-0.3,0.2-0.6,0.4-0.9,0.6C54,27.2,41.5,49.4,41.5,74.5
		c0,24.1,11.8,46.7,31.3,60.5c1.1,0.8,1.7,2,1.7,3.3v10.3c0,0,0,0,0,0l-13.3,0c-3.9,0-7.3,2.8-7.9,6.7c-1.8,11.6-4.8,36.5-1.4,62.3
		c0.1,0.9,0,1.7-0.5,2.5L1,310.1c-2.6,4.7,0,10.5,5.2,11.7l49.5,11.3c1.4,0.3,2.3,1.5,2.3,2.9v93.7c0,4.4,3.6,8,8,8h71.6
		c1.7,0,3,1.3,3,3V504c0,4.4,3.6,8,8,8h182.2c4.4,0,8-3.6,8-8V398.5c0-1,0.5-1.9,1.3-2.4c57-41,85.6-128,89.5-175.9
		c2.1-26.1-0.8-49.2-3.4-64.6c-0.6-3.6-3.9-6.9-7.9-6.9H409c0,0,0,0,0,0l36.9-88.3C446,59.9,446.1,59.3,446.1,58.8z M322.3,30.7
		V19.2c0-1.4,1.1-2.5,2.5-2.5h11.5c1.4,0,2.5,1.1,2.5,2.5v11.5c0,1.4-1.1,2.5-2.5,2.5h-11.5C323.4,33.2,322.3,32.1,322.3,30.7z
		 M217.7,58.4l-0.7,0.3c-2,0.8-4-1-3.4-3l8.5-26.9l26,11.1c2,0.8,2,3.6,0.1,4.5l-0.7,0.3c-1.2,0.6-1.7,2.1-1.2,3.3L270,99.3l-31,0.1
		L221,59.7C220.4,58.4,219,57.9,217.7,58.4z M206.7,132.3c0-9.2,7.5-16.7,16.7-16.7l5,0l15,33h-36.7c0,0,0,0,0,0V132.3z M58.3,74.3
		C58.3,53.5,69.4,35.1,86,25c8.7-5.3,18.9-8.3,29.8-8.3c31.9,0,57.8,25.9,57.8,57.8c0,17.9-8.4,34.7-22.4,45.6c-2,1.6-4.1,3-6.4,4.3
		l-0.1,0.1c-0.1,0-0.1,0.1-0.1,0.1l-0.1,0c-2.5,1.4-4,4.1-4,6.9v17.2c0,0,0,0,0,0h-16.5c0,0,0,0,0,0l0-50.9l0,0
		c10.3-3.7,17.5-13.9,16.4-25.7c-1.1-12-11-21.5-23-22.3C103.1,48.8,91,60.3,91,74.5c0,10.8,6.9,19.8,16.5,23.3c0,0,0,0,0,0v50.9
		l0,0H91c0,0,0,0,0,0l0-17.2c0,0,0-0.1,0-0.1c0.1,0,0.2-0.1,0.2-0.1c0-2.8-1.4-5.3-3.8-6.8c0-0.1-0.1-0.1-0.2-0.2l-0.1-0.1
		C69.3,114,58.3,94.8,58.3,74.3z M123.9,76.1c-0.6,3.2-3.2,5.9-6.5,6.5c-5.8,1.1-10.9-3.9-9.7-9.8c0.6-3.2,3.3-5.8,6.5-6.4
		C120,65.3,125,70.3,123.9,76.1z M411.7,168.8c0.4,6.6,3.2,30.1,1.5,51.4c-3.7,45.4-32.6,128.1-87.2,165.7l-0.1,0.1
		c-2.2,1.5-3.5,4-3.5,6.6v100c0,1.7-1.3,3-3,3H160.1c-1.7,0-3-1.3-3-3v-63.3c0-4.4-3.6-8-8-8H77.5c-1.7,0-3-1.3-3-3v-91.4
		c0-3.7-2.6-7-6.2-7.8l-42.1-9.6c-2.6-0.6-3.9-3.5-2.6-5.9L68,224.5c0.9-1.6,1.2-3.4,0.9-5.2l-0.3-1.9c-4.1-18.9-1.9-40.5-0.8-48.7
		c0.3-2,2-3.5,4-3.5l335.9,0C409.7,165.2,411.5,166.7,411.7,168.8z M391.1,148.6L391.1,148.6l-23.3,0c0,0,0,0,0,0l41.2-96
		c0,0,0,0,0,0l18.3,9.1l0,0L391.1,148.6z M425.1,42.3L425.1,42.3c-2.1-1-2.4-3.9-0.5-5.3c2.1-1.6,5-0.1,5,2.5
		C429.6,41.8,427.2,43.4,425.1,42.3z"/>
	<path class="st0" d="M165,189.9h-0.9c-3.8,0-6.9,2.7-7.7,6.4c-2.5,12.2-12.4,18.4-24.2,18.4c-11.8,0-21.6-6.1-24.2-18.4
		c-0.8-3.7-3.9-6.4-7.7-6.4l-0.7,0c-5.1,0-8.8,4.6-7.8,9.5c4.1,19.4,20.6,31.8,40.3,31.8c19.7,0,36.3-12.4,40.3-31.8
		C173.7,194.5,170,189.9,165,189.9z"/>
</g>
</svg>
