<?xml version="1.0" encoding="utf-8"?>
<!-- Generator: Adobe Illustrator 21.0.0, SVG Export Plug-In . SVG Version: 6.00 Build 0)  -->
<svg version="1.1" id="Capa_1" xmlns="http://www.w3.org/2000/svg" xmlns:xlink="http://www.w3.org/1999/xlink" x="0px" y="0px"
	 width="606.9px" height="512px" viewBox="0 0 606.9 512" style="enable-background:new 0 0 606.9 512;" xml:space="preserve">
<style type="text/css">
	.st0{fill:#323335;}
</style>
<g>
	<path class="st0" d="M481,154.7c-3.9,0-7.9-1.5-7.9-4.4V54c0-2,1.9-4.2,5.6-4.2h29.8c26.4,0,31.9,17.2,31.9,31.6v0.9
		c0,27.8-20.7,31.9-33.1,31.9h-18.3v36.1C488.9,153.2,484.8,154.7,481,154.7z M488.9,102.5h18.3c11,0,17.3-6.8,17.3-18.8V82
		c0-11.9-6.3-18.8-17.3-18.8h-18.3V102.5z"/>
	<path class="st0" d="M143.1,98.9c-1.9,0-3.6-0.7-4.9-2c-1.3-1.3-2-3.1-2-4.9c0-1.9,0.7-3.6,2-4.9C166,59.1,203,43.8,242.3,43.8
		s76.3,15.3,104.1,43.1c2.7,2.7,2.7,7.2,0,9.9c-1.3,1.3-3.1,2-4.9,2s-3.6-0.7-4.9-2c-25.2-25.2-58.6-39-94.2-39
		c-35.6,0-69.1,13.9-94.2,39C146.7,98.1,145,98.9,143.1,98.9z"/>
	<path class="st0" d="M305.6,134.7c-1.9,0-3.6-0.7-4.9-2c-15.6-15.6-36.3-24.1-58.4-24.1s-42.8,8.6-58.4,24.1c-1.3,1.3-3.1,2-4.9,2
		c-1.9,0-3.6-0.7-4.9-2c-1.3-1.3-2-3.1-2-4.9c0-1.9,0.7-3.6,2-4.9c18.2-18.2,42.4-28.2,68.3-28.2s50.1,10,68.3,28.2
		c2.7,2.7,2.7,7.2,0,9.9C309.2,134,307.5,134.7,305.6,134.7z"/>
	<path class="st0" d="M214.3,170c-1.9,0-3.6-0.7-4.9-2c-1.3-1.3-2-3.1-2-4.9c0-1.9,0.7-3.6,2-4.9c8.8-8.8,20.5-13.6,33-13.6
		c12.5,0,24.2,4.8,33,13.6c2.7,2.7,2.7,7.2,0,9.9c-1.3,1.3-3.1,2-4.9,2c-1.9,0-3.6-0.7-4.9-2c-6.2-6.2-14.4-9.5-23.1-9.5
		c-8.7,0-16.9,3.4-23.1,9.5C217.9,169.3,216.1,170,214.3,170z"/>
	<path class="st0" d="M187.9,359.5c-3.9,0-7-3.1-7-7c0-3.9,3.1-7,7-7h30.6v-67.3h-25.3c-23.8,0-46.3,9.3-63.2,26.1
		c-11.3,11.3-24.3,20.7-38.4,28.1c-2.3,1.2-3.7,3.6-3.7,6.2c0,3.8,3.1,6.9,6.9,6.9h36c3.9,0,7,3.1,7,7c0,3.9-3.1,7-7,7h-36
		c-11.5,0-20.9-9.4-20.9-20.9c0-7.8,4.3-14.9,11.3-18.5c12.9-6.7,24.6-15.3,35-25.6c19.5-19.5,45.5-30.2,73-30.2h105.6
		c20.7,0,40.7,6.1,57.9,17.7l57.5,38.8c3.6,2.4,7.3,4.7,11.2,6.8c7.6,4.2,12.3,12,12.3,20.6c0,6.2-5,11.3-11.3,11.3H187.9z
		 M232.5,345.6h191.3l-1.9-2.7c-0.8-1.2-2-2.2-3.3-2.9c-4.2-2.3-8.3-4.8-12.3-7.5l-57.5-38.8c-14.9-10-32.2-15.3-50.1-15.3h-66.2
		V345.6z"/>
	<path class="st0" d="M228.9,390.1c-3.9,0-7-3.1-7-7s3.1-7,7-7h26.9c3.9,0,7,3.1,7,7s-3.1,7-7,7H228.9z"/>
	<path class="st0" d="M104.6,480.5c-6.6,0-12.8-2.6-17.5-7.2c-4.7-4.7-7.2-10.9-7.2-17.5s2.6-12.8,7.2-17.5
		c4.7-4.7,10.9-7.2,17.5-7.2c6.6,0,12.8,2.6,17.5,7.2c9.6,9.6,9.6,25.3,0,34.9C117.4,477.9,111.2,480.5,104.6,480.5z M104.6,445.1
		c-2.9,0-5.6,1.1-7.6,3.1c-2,2-3.1,4.7-3.1,7.6c0,2.9,1.1,5.6,3.1,7.6c2,2,4.7,3.1,7.6,3.1c2.9,0,5.6-1.1,7.6-3.1
		c2-2,3.1-4.7,3.1-7.6c0-2.9-1.1-5.6-3.1-7.6C110.2,446.2,107.5,445.1,104.6,445.1z"/>
	<path class="st0" d="M504.4,480.5c-6.6,0-12.8-2.6-17.5-7.2c-9.6-9.6-9.6-25.3,0-34.9c4.7-4.7,10.9-7.2,17.5-7.2
		c6.6,0,12.8,2.6,17.5,7.2c4.7,4.7,7.2,10.9,7.2,17.5c0,6.6-2.6,12.8-7.2,17.5C517.2,477.9,511,480.5,504.4,480.5z M504.4,445.1
		c-2.9,0-5.6,1.1-7.6,3.1c-4.2,4.2-4.2,11,0,15.2c2,2,4.7,3.1,7.6,3.1s5.6-1.1,7.6-3.1c2-2,3.1-4.7,3.1-7.6s-1.1-5.6-3.1-7.6
		C509.9,446.2,507.2,445.1,504.4,445.1z"/>
	<path class="st0" d="M503.5,512c-15.2,0-29.6-5.9-40.3-16.7c-6.6-6.6-11.6-14.9-14.3-23.9l-0.4-1.2H160.5l-0.4,1.2
		c-2.7,9-7.6,17.3-14.3,23.9c-10.8,10.8-25.1,16.7-40.3,16.7c-15.3,0-29.6-5.9-40.3-16.7c-7.9-7.9-13.3-17.9-15.5-28.9l-0.2-0.9
		l-34.7-15.4c-9-4-14.8-12.9-14.8-22.8v-83.8c0-18.7,13.3-35,31.6-38.9l12.4-2.6c21.7-4.6,41.5-15.2,57.3-30.9
		c24.7-24.6,57.5-38.2,92.4-38.2h105.1c26.2,0,51.5,7.8,73.3,22.4l57.3,38.7c10.3,6.9,25.8,16.5,41.7,19.7l12,2.4V211h-66
		c-11.7,0-21.2-9.5-21.2-21.2v-48.4c0-4.6,3.7-8.3,8.3-8.3c4.6,0,8.3,3.7,8.3,8.3v48.4c0,2.6,2.1,4.7,4.7,4.7h168.6
		c2.6,0,4.7-2.1,4.7-4.7V21.2c0-2.6-2.1-4.7-4.7-4.7H416.9c-2.6,0-4.7,2.1-4.7,4.7v64c0,4.6-3.7,8.3-8.3,8.3c-4.6,0-8.3-3.7-8.3-8.3
		v-64c0-11.7,9.5-21.2,21.2-21.2h168.6c11.7,0,21.2,9.5,21.2,21.2v168.6c0,11.7-9.5,21.2-21.2,21.2h-58.2v114l22.7,4.5
		c19.5,3.9,36.5,15.8,46.8,32.9l2.7,4.5c4.8,8,7.4,17.3,7.4,26.6v44.9c0,17.5-14.2,31.7-31.7,31.7h-16.7l-0.4,1.2
		c-2.7,9-7.6,17.3-14.3,23.9C533.1,506.1,518.7,512,503.5,512z M503.5,414.5c-10.8,0-21,4.2-28.7,11.9c-0.5,0.5-1,1.1-1.5,1.6
		c-0.2,0.2-0.3,0.3-0.4,0.5l-0.2,0.2c-0.3,0.3-0.5,0.6-0.8,0.9c-0.3,0.4-0.6,0.7-0.8,1.1c-0.1,0.2-0.3,0.4-0.4,0.6
		c-0.3,0.5-0.6,0.9-0.9,1.3l-0.1,0.2c-10.5,16-8.3,37.4,5.2,50.9c7.7,7.7,17.8,11.9,28.7,11.9s21-4.2,28.7-11.9
		c13.5-13.5,15.7-34.9,5.3-50.8l-0.1-0.2c-0.3-0.5-0.6-0.9-0.9-1.3c-0.1-0.2-0.3-0.4-0.4-0.6c-0.3-0.4-0.5-0.7-0.8-1
		c-0.2-0.3-0.5-0.6-0.8-0.9l-0.2-0.3c-0.2-0.2-0.3-0.4-0.4-0.5c-0.5-0.5-1-1.1-1.5-1.6C524.5,418.7,514.3,414.5,503.5,414.5z
		 M79.9,423.6c-0.4,0.3-0.8,0.7-1.2,1.1l-0.3,0.3c-0.4,0.4-0.8,0.8-1.2,1.2l-0.2,0.2l-0.2,0.2c-0.4,0.4-0.9,0.9-1.3,1.4
		c-0.1,0.1-0.5,0.6-0.5,0.6c-0.3,0.4-0.6,0.7-0.9,1c-0.1,0.2-0.3,0.4-0.4,0.5l-0.2,0.2c-0.2,0.3-0.5,0.6-0.7,1
		c-0.2,0.2-0.3,0.5-0.5,0.7l-0.1,0.1c-0.2,0.3-0.4,0.6-0.6,0.9c-0.2,0.3-0.4,0.7-0.6,1c-0.2,0.3-0.3,0.5-0.5,0.8
		c-0.2,0.4-0.4,0.8-0.6,1.1c-0.1,0.2-0.2,0.4-0.3,0.6c-0.2,0.4-0.4,0.9-0.6,1.3l-0.2,0.4c-7,15.3-3.7,33.6,8.2,45.5
		c7.7,7.7,17.8,11.9,28.7,11.9c10.8,0,21-4.2,28.7-11.9c13.5-13.5,15.7-34.9,5.3-50.8l-0.1-0.2c-0.3-0.5-0.6-0.9-0.9-1.4
		c-0.1-0.2-0.3-0.4-0.4-0.6c-0.3-0.3-0.5-0.7-0.8-1c-0.2-0.3-0.5-0.6-0.7-0.9l-0.2-0.2c-0.2-0.2-0.3-0.4-0.4-0.5
		c-0.5-0.5-1-1.1-1.5-1.6c-0.5-0.5-1-1-1.5-1.4l-0.3-0.2c-0.4-0.4-0.9-0.8-1.3-1.1c-7.2-5.9-16.3-9.1-25.6-9.1
		c-9.3,0-18.3,3.2-25.5,9l0.4,0l-0.6,0.5L79.9,423.6z M105.5,398c11.2,0,22.1,3.2,31.4,9.4c3.2,2.1,6.2,4.6,8.9,7.3
		c0.7,0.7,1.3,1.4,2,2.1l0.3,0.3c0.6,0.6,1.1,1.2,1.6,1.9l0.1,0.1c7.7,9.5,12.1,20.9,12.7,33l0.1,1.6h283.9l0.1-1.6
		c0.6-12.1,5-23.5,12.6-32.9l0.2-0.2c0.5-0.6,1-1.2,1.5-1.8c0,0,0.3-0.3,0.4-0.4c0.5-0.6,1.1-1.2,1.7-1.8l0.3-0.3
		c8-8,18.1-13.4,29.1-15.6c3.7-0.7,7.4-1.1,11.2-1.1c4.7,0,9.4,0.6,13.9,1.7c9.9,2.5,19.1,7.7,26.4,15l0.3,0.3
		c0.6,0.6,1.2,1.2,1.7,1.8l0.4,0.4c0.5,0.6,1,1.2,1.5,1.8l0.1,0.1c7.7,9.5,12.1,20.9,12.7,32.9l0.1,1.6h14.6
		c8.4,0,15.2-6.8,15.2-15.2l0-44.9c0-6.4-1.7-12.7-5-18.1l-2.7-4.5c-7.9-13-20.9-22.2-35.8-25.2l-79-15.7
		c-18.9-3.8-36.3-14.5-47.7-22.2l-57.3-38.7c-19-12.8-41.1-19.6-64-19.6H193.6c-30.5,0-59.1,11.8-80.7,33.3
		c-18,17.9-40.7,30.2-65.5,35.4L35,320.8c-10.7,2.2-18.4,11.8-18.4,22.7v83.8c0,3.3,2,6.3,5,7.7l27.4,12.2l0.4-2.2
		c1-5.8,2.9-11.4,5.7-16.6c0.4-0.9,0.9-1.6,1.3-2.4l0.1-0.2c0.9-1.5,1.9-3.1,3-4.5c0.1-0.1,0.4-0.5,0.4-0.5c0.4-0.5,0.8-1.1,1.2-1.6
		c0.2-0.2,0.4-0.4,0.5-0.7c0.4-0.5,0.8-1,1.2-1.5l0.5-0.6c0.6-0.6,1.2-1.3,1.8-1.9C75.9,403.9,90.2,398,105.5,398z M499.4,319.5
		l11.4,2.3V211h-11.4V319.5z"/>
</g>
</svg>
