<?xml version="1.0" encoding="utf-8"?>
<!-- Generator: Adobe Illustrator 21.0.0, SVG Export Plug-In . SVG Version: 6.00 Build 0)  -->
<svg version="1.1" id="Слой_1" xmlns="http://www.w3.org/2000/svg" xmlns:xlink="http://www.w3.org/1999/xlink" x="0px" y="0px"
	 width="538.5px" height="512px" viewBox="0 0 538.5 512" style="enable-background:new 0 0 538.5 512;" xml:space="preserve">
<style type="text/css">
	.st0{fill:#323335;}
</style>
<g>
	<path class="st0" d="M185.2,87.4c-4.6,0-8.3-3.7-8.3-8.3V61.4c0-4.6,3.7-8.3,8.3-8.3c4.6,0,8.3,3.7,8.3,8.3v17.7
		C193.6,83.7,189.8,87.4,185.2,87.4z"/>
	<path class="st0" d="M249.7,120.2c-2.2,0-4.3-0.9-5.9-2.4c-3.3-3.3-3.3-8.5,0-11.8l12.5-12.5c1.6-1.6,3.7-2.4,5.9-2.4
		c2.2,0,4.3,0.9,5.9,2.4c1.6,1.6,2.4,3.7,2.4,5.9c0,2.2-0.9,4.3-2.4,5.9l-12.5,12.5C254.1,119.4,252,120.2,249.7,120.2z"/>
	<path class="st0" d="M120.7,120.2c-2.2,0-4.3-0.9-5.9-2.4l-12.5-12.5c-1.6-1.6-2.4-3.7-2.4-5.9c0-2.2,0.9-4.3,2.4-5.9
		c1.6-1.6,3.7-2.4,5.9-2.4c2.2,0,4.3,0.9,5.9,2.4l12.5,12.5c1.6,1.6,2.4,3.7,2.4,5.9c0,2.2-0.9,4.3-2.4,5.9
		C125.1,119.4,123,120.2,120.7,120.2z"/>
	<path class="st0" d="M185.2,397c-21,0-40.3-7.4-51.6-19.8c-3.1-3.4-2.8-8.7,0.6-11.8c1.5-1.4,3.5-2.2,5.6-2.2c2.3,0,4.6,1,6.2,2.7
		c8,8.8,23.1,14.3,39.3,14.3c16,0,30.9-5.4,39-14.1c1.6-1.7,3.8-2.7,6.1-2.7c2.1,0,4.1,0.8,5.7,2.2c1.6,1.5,2.6,3.6,2.7,5.8
		c0.1,2.2-0.7,4.4-2.2,6C225.2,389.7,206,397,185.2,397z"/>
	<path class="st0" d="M105.6,326.3c-9.5,0-17.2-7.7-17.2-17.2c0-9.5,7.7-17.2,17.2-17.2c9.5,0,17.2,7.7,17.2,17.2
		C122.8,318.5,115.1,326.3,105.6,326.3z"/>
	<path class="st0" d="M264.8,326.3c-9.5,0-17.2-7.7-17.2-17.2c0-9.5,7.7-17.2,17.2-17.2c9.5,0,17.2,7.7,17.2,17.2
		C282,318.5,274.3,326.3,264.8,326.3z"/>
	<path class="st0" d="M168.5,308.6c-0.8,0-1.6-0.1-2.4-0.4c-3.5-1-6-4.3-6-8v-65.4h-26.6c-4.7,0-8.9-2.6-11.1-6.7
		c-2.2-4.2-2-9.2,0.6-13.2l63.1-96.2c1.6-2.4,4.2-3.8,7-3.8c0.8,0,1.6,0.1,2.4,0.3c3.5,1,6,4.3,6,8v65.4l26.7,0.1
		c4.7,0,8.9,2.6,11.1,6.7c2.2,4.1,2,9.1-0.7,13l-63.1,96.2C174,307.2,171.4,308.6,168.5,308.6z M140.9,218.2h27.6
		c4.6,0,8.3,3.7,8.3,8.3v45.8l43.8-66.8l-27.6-0.1c-4.6,0-8.3-3.8-8.3-8.3v-45.8L140.9,218.2z"/>
	<path class="st0" d="M8.3,512c-4.6,0-8.3-3.7-8.3-8.3v-35.4c0-4.6,3.7-8.3,8.3-8.3h18.2V46.6C26.5,20.9,47.5,0,73.2,0h224.1
		c25.7,0,46.6,20.9,46.6,46.6v323.7l0.7-0.2c10.8-3.9,18-14.3,18-25.7V176.4c0-35.8,26.8-65.8,62.3-69.8l0.4,0l0.1-0.4
		c4-20.5,22-35.4,42.9-35.4h35.4c4.6,0,8.3,3.7,8.3,8.3v9.3h18.2c4.6,0,8.3,3.7,8.3,8.3c0,4.6-3.7,8.3-8.3,8.3H512v18.7h18.2
		c4.6,0,8.3,3.7,8.3,8.3s-3.7,8.3-8.3,8.3H512v9.3c0,4.6-3.7,8.3-8.3,8.3h-35.4c-20.4,0-38.4-14.5-42.7-34.4l-0.1-0.5l-0.5,0.1
		c-26,3.9-45.7,26.6-45.7,53v168.1c0,20.7-14.7,38.8-35,43.1l-0.4,0.1v72.3h18.2c4.6,0,8.3,3.7,8.3,8.3v35.4c0,4.6-3.7,8.3-8.3,8.3
		H8.3z M16.7,495.3h337.1v-18.7H16.7V495.3z M73.2,16.7c-16.5,0-30,13.4-30,30v413.3h284V46.6c0-16.5-13.4-30-30-30H73.2z
		 M468.3,87.4c-14.9,0-27,12.1-27,27c0,14.9,12.1,27,27,27h27V87.4H468.3z"/>
</g>
</svg>
