<?xml version="1.0" encoding="utf-8"?>
<!-- Generator: Adobe Illustrator 21.0.0, SVG Export Plug-In . SVG Version: 6.00 Build 0)  -->
<svg version="1.1" id="Слой_1" xmlns="http://www.w3.org/2000/svg" xmlns:xlink="http://www.w3.org/1999/xlink" x="0px" y="0px"
	 width="512px" height="512px" viewBox="0 0 512 512" style="enable-background:new 0 0 512 512;" xml:space="preserve">
<style type="text/css">
	.st0{fill:#323335;}
</style>
<g>
	<circle class="st0" cx="463.5" cy="376.9" r="8.2"/>
	<path class="st0" d="M28.3,512C12.7,512,0,499.3,0,483.7V235.9c0-4.5,3.7-8.2,8.2-8.2h138.9V108.9c0-4.5,3.7-8.2,8.2-8.2h78.5v-1.9
		c0-54.5,44.3-98.8,98.8-98.8s98.8,44.3,98.8,98.8v1.9h72.4c4.5,0,8.2,3.7,8.2,8.2v374.8c0,15.6-12.7,28.3-28.3,28.3H28.3z
		 M270.2,483.7c0,3.2-0.5,6.4-1.6,9.4l-0.9,2.6h216c6.6,0,12-5.4,12-12v-38.2H270.2V483.7z M16.3,483.7c0,6.6,5.4,12,12,12h213.6
		c6.6,0,12-5.4,12-12v-38.2H16.3V483.7z M163.4,227.7H262c4.5,0,8.2,3.7,8.2,8.2v193.3h225.5V117.1h-64.3v50.2h12
		c4.5,0,8.2,3.7,8.2,8.2s-3.7,8.2-8.2,8.2h-40.3c-4.5,0-8.2-3.7-8.2-8.2s3.7-8.2,8.2-8.2h12v-50.2h-165v50.2h12
		c4.5,0,8.2,3.7,8.2,8.2s-3.7,8.2-8.2,8.2h-40.3c-4.5,0-8.2-3.7-8.2-8.2s3.7-8.2,8.2-8.2h12v-50.2h-70.3V227.7z M16.3,429.2h237.6
		V244H16.3V429.2z M332.6,16.3c-45.5,0-82.5,37-82.5,82.5v1.9h165v-1.9C415.1,53.3,378.1,16.3,332.6,16.3z"/>
	<path class="st0" d="M135.1,385.1c-32.3,0-58.5-26.3-58.5-58.5v-22.1h-1.9c-4.5,0-8.2-3.7-8.2-8.2c0-4.5,3.7-8.2,8.2-8.2h20.1
		c4.5,0,8.2,3.7,8.2,8.2c0,4.5-3.7,8.2-8.2,8.2h-1.9v22.1c0,23.3,18.9,42.2,42.2,42.2s42.2-18.9,42.2-42.2v-22.1h-1.9
		c-4.5,0-8.2-3.7-8.2-8.2c0-4.5,3.7-8.2,8.2-8.2h20.1c4.5,0,8.2,3.7,8.2,8.2c0,4.5-3.7,8.2-8.2,8.2h-1.9v22.1
		C193.6,358.8,167.4,385.1,135.1,385.1z"/>
	<path class="st0" d="M463.5,344.8c-4.5,0-8.2-3.7-8.2-8.2V256c0-4.5,3.7-8.2,8.2-8.2c4.5,0,8.2,3.7,8.2,8.2v80.6
		C471.7,341.1,468,344.8,463.5,344.8z"/>
</g>
</svg>
