<?xml version="1.0" encoding="utf-8"?>
<!-- Generator: Adobe Illustrator 21.0.0, SVG Export Plug-In . SVG Version: 6.00 Build 0)  -->
<svg version="1.1" id="Слой_1" xmlns="http://www.w3.org/2000/svg" xmlns:xlink="http://www.w3.org/1999/xlink" x="0px" y="0px"
	 width="551.2px" height="512px" viewBox="0 0 551.2 512" style="enable-background:new 0 0 551.2 512;" xml:space="preserve">
<style type="text/css">
	.st0{fill:#323335;}
</style>
<g>
	<path class="st0" d="M46.8,328.9c-4.2,0-7.6,2.8-8.4,6.7c-0.5,2.5,0.1,4.9,1.7,6.8c1.7,2,4.2,3.2,6.8,3.2c1.9,0,3.8-0.7,5.3-2
		c3.2-2.7,3.9-7.6,1.5-11.1C52.1,330.2,49.6,328.9,46.8,328.9z"/>
	<path class="st0" d="M102.3,328.8c-2.6,0-5,1.2-6.6,3.1c-2.1,2.6-2.5,6.2-0.9,9.2c1.4,2.8,4.4,4.6,7.5,4.6c0.5,0,1.1-0.1,1.6-0.2
		c3.5-0.7,6.2-3.5,6.7-7.1c0.6-3.8-1.6-7.6-5.1-9C104.5,329,103.4,328.8,102.3,328.8z"/>
	<path class="st0" d="M74.6,328.9c-4.2,0-7.6,2.8-8.4,6.7c-0.7,3.5,1,7.2,4.1,9c1.2,0.7,2.7,1.1,4.1,1.1c2,0,4-0.7,5.5-2
		c3.2-2.7,3.9-7.6,1.6-11.1C79.9,330.2,77.4,328.9,74.6,328.9z"/>
	<path class="st0" d="M389.9,386.3c-2.3,0-4.4,0.9-6,2.5c-5,5-11.6,7.7-18.6,7.7c-7,0-13.7-2.7-18.6-7.7c-1.6-1.6-3.7-2.5-6-2.5
		s-4.4,0.9-6,2.5c-3.3,3.3-3.3,8.6,0,11.9c8.2,8.1,19,12.6,30.6,12.6c11.6,0,22.4-4.5,30.6-12.6c3.3-3.3,3.3-8.6,0-11.9
		C394.3,387.1,392.2,386.3,389.9,386.3z"/>
	<path class="st0" d="M411.2,314.7c-4.7,0-8.4,3.8-8.4,8.4v23.4c0,4.7,3.8,8.4,8.4,8.4c4.7,0,8.4-3.8,8.4-8.4v-23.4
		C419.7,318.5,415.9,314.7,411.2,314.7z"/>
	<path class="st0" d="M319.5,314.7c-4.7,0-8.4,3.8-8.4,8.4v23.4c0,4.7,3.8,8.4,8.4,8.4s8.4-3.8,8.4-8.4v-23.4
		C327.9,318.5,324.1,314.7,319.5,314.7z"/>
	<path class="st0" d="M508.7,288.7l-0.3-0.1v-39.9c0-1.3,0-2.5,0-3.8l0-0.3l0.2-0.2c3.3-2.6,6.6-5.5,9.6-8.5
		c21.1-20.9,32.8-48.7,33.1-78.3c0.1-10.4-4.1-20.7-11.4-28.1c-7.2-7.3-16.8-11.4-26.9-11.4h-0.2c-10.2,0-19.8,4-27.1,11.2
		c-0.9,0.9-1.7,1.8-2.5,2.7l-0.4,0.5l-0.4-0.5c-7.3-8.9-18.1-13.9-29.6-13.9c-6.5,0-12.9,1.7-18.6,4.8l-0.2,0.1l-0.2-0.1
		c-20.8-11.3-44.5-17.3-68.3-17.3c-78.9,0-143,64.2-143,143v39.9l-0.3,0.1c-12,4.2-20.1,15.6-20.1,28.3v41.3H16.9v-26
		c0-11.3,9.2-20.4,20.4-20.4h150.1c4.7,0,8.4-3.8,8.4-8.4c0-4.7-3.8-8.4-8.4-8.4H37.3C16.7,294.9,0,311.7,0,332.2v142.5
		C0,495.3,16.7,512,37.3,512h141.4c4.7,0,8.4-3.8,8.4-8.4s-3.8-8.4-8.4-8.4H37.3c-11.3,0-20.4-9.2-20.4-20.4v-99.6h185.1v5.9
		c0,16.5,13.4,29.9,29.9,29.9h8.4c7.2,0,14.2-2.6,19.7-7.4l0.5-0.5l0.3,0.7c4.1,10.5,9.7,20.4,16.8,29.3l0.1,0.1v41.5
		c0,11.3-9.2,20.4-20.4,20.4h-51.3c-4.7,0-8.4,3.8-8.4,8.4s3.8,8.4,8.4,8.4h51.3c20.6,0,37.3-16.7,37.3-37.3v-24.4l0.8,0.7
		c20,16.1,44.2,24.6,70,24.6c23,0,45.1-6.9,63.9-20l0.2-0.1l0.2,0.1c2.1,0.5,4.3,0.8,6.5,0.8h6.1c11.4,0,21.5-7.2,25.2-18l0.1-0.3
		h18.2c12.5,0,22.6-10.1,22.6-22.6v-6l0.3-0.1c12-4.2,20.1-15.6,20.1-28.3v-64.1C528.8,304.2,520.7,292.9,508.7,288.7z M253.3,381
		c0,7.2-5.9,13.1-13.1,13.1h-8.4c-7.2,0-13.1-5.9-13.1-13.1v-64.1c0-7.2,5.9-13.1,13.1-13.1h8.4c7.2,0,13.1,5.9,13.1,13.1V381z
		 M253.3,222.3V290l-0.7-0.3c-3.9-1.8-8-2.7-12.4-2.7h-1v-38.4c0-69.5,56.6-126.1,126.1-126.1c18.9,0,37.9,4.3,54.9,12.5l0.5,0.2
		l-0.3,0.5c-2.4,3.7-4.1,7.7-5.1,12l-0.1,0.4h-87.7C286.6,148.1,253.3,181.4,253.3,222.3z M442.2,439.4h-6.1c-5.4,0-9.9-4.4-9.9-9.8
		c0-5.4,4.4-9.9,9.9-9.9h6.1c5.4,0,9.8,4.4,9.8,9.9C452,435,447.6,439.4,442.2,439.4z M428.6,268.3h10.8c6.9,0,13.8-0.6,20.5-1.9
		l0.6-0.1v97.1c0,13.9-3.1,27.9-9,40.5l-0.2,0.4l-0.4-0.1c-2.8-1-5.7-1.4-8.7-1.4h-6.1c-14.7,0-26.7,12-26.7,26.7
		c0,5.4,1.6,10.6,4.7,15.1l0.3,0.4l-0.5,0.3c-14.6,8.7-31.4,13.3-48.6,13.3c-25.4,0-49.3-9.9-67.3-27.9c-18-18-27.9-41.9-27.9-67.3
		v-50.1l0.4-0.1c8.4-1.4,15.4-5.1,20.7-11.1c8.8-9.9,11-23.6,11.3-33.4l0-0.5h98.7c4.7,0,8.4-3.8,8.4-8.4c0-4.7-3.8-8.4-8.4-8.4
		H293.8c-2.4,0-4.7,1-6.3,2.9c-1.6,1.8-2.3,4.2-2,6.7c0.7,5.5,0.8,21.6-6.7,30c-2.1,2.4-4.7,4-7.9,5l-0.6,0.2l0-73.9
		c0-31.6,25.7-57.3,57.3-57.3h95.2c4.7,0,8.4-3.8,8.4-8.4c0-11.9,9.7-21.6,21.6-21.6c11.9,0,21.6,9.7,21.6,21.6
		c0,4.7,3.8,8.4,8.4,8.4c4.7,0,8.4-3.8,8.4-8.4c0-5.8,2.3-11.2,6.3-15.3c4.1-4.1,9.5-6.3,15.3-6.3c5.6,0,10.9,2.3,14.9,6.4
		c4.2,4.3,6.6,10.2,6.6,16.1c-0.2,25.1-10.2,48.8-28.1,66.5c-17.9,17.7-41.6,27.5-66.8,27.5h-10.8c-4.7,0-8.4,3.8-8.4,8.4
		C420.1,264.6,423.9,268.3,428.6,268.3z M491.5,255.5V287h-1c-4.3,0-8.5,0.9-12.4,2.7l-0.7,0.3v-28.2l0.3-0.1
		c4.5-1.6,8.9-3.6,13-5.7L491.5,255.5z M491.5,415.4c0,3.1-2.6,5.7-5.7,5.7h-18.2l-0.1-0.3c-0.7-1.9-1.5-3.6-2.5-5.3l-0.2-0.2
		l0.1-0.3c1.9-3.6,3.6-7.4,5-11.2l0.3-0.7l0.5,0.5c5.5,4.8,12.5,7.5,19.7,7.5h1V415.4z M511.9,381c0,7.2-5.9,13.1-13.1,13.1h-8.4
		c-7.2,0-13.1-5.9-13.1-13.1v-64.1c0-7.2,5.9-13.1,13.1-13.1h8.4c7.2,0,13.1,5.9,13.1,13.1V381z"/>
	<path class="st0" d="M35,195.1h78.3l58.6,58.6c1.6,1.6,3.7,2.5,6,2.5c1.1,0,2.2-0.2,3.2-0.6c3.2-1.3,5.2-4.4,5.2-7.8v-52.7h7.2
		c19.3,0,35.1-15.7,35.1-35.1V35.1c0-19.3-15.7-35.1-35.1-35.1H35C15.7,0,0,15.7,0,35.1V160C0,179.3,15.7,195.1,35,195.1z
		 M16.8,35.1c0-10,8.2-18.2,18.2-18.2h158.5c10,0,18.2,8.2,18.2,18.2V160c0,10-8.2,18.2-18.2,18.2h-15.6c-4.7,0-8.4,3.8-8.4,8.4
		v40.7l-46.7-46.7c-1.6-1.6-3.7-2.5-6-2.5H35c-10,0-18.2-8.2-18.2-18.2V35.1z"/>
	<path class="st0" d="M57.5,392.1H37.9c-4.7,0-8.4,3.8-8.4,8.4c0,4.7,3.8,8.4,8.4,8.4h19.6c4.7,0,8.4-3.8,8.4-8.4
		C66,395.9,62.2,392.1,57.5,392.1z"/>
	<path class="st0" d="M157.9,392.1H83.7c-4.7,0-8.4,3.8-8.4,8.4c0,4.7,3.8,8.4,8.4,8.4h74.2c4.7,0,8.4-3.8,8.4-8.4
		C166.3,395.9,162.6,392.1,157.9,392.1z"/>
	<path class="st0" d="M57.5,425.4H37.9c-4.7,0-8.4,3.8-8.4,8.4c0,4.7,3.8,8.4,8.4,8.4h19.6c4.7,0,8.4-3.8,8.4-8.4
		C66,429.1,62.2,425.4,57.5,425.4z"/>
	<path class="st0" d="M157.9,425.4H83.7c-4.7,0-8.4,3.8-8.4,8.4c0,4.7,3.8,8.4,8.4,8.4h74.2c4.7,0,8.4-3.8,8.4-8.4
		C166.3,429.1,162.6,425.4,157.9,425.4z"/>
	<path class="st0" d="M57.5,458.6H37.9c-4.7,0-8.4,3.8-8.4,8.4c0,4.7,3.8,8.4,8.4,8.4h19.6c4.7,0,8.4-3.8,8.4-8.4
		C66,462.4,62.2,458.6,57.5,458.6z"/>
	<path class="st0" d="M157.9,458.6H83.7c-4.7,0-8.4,3.8-8.4,8.4c0,4.7,3.8,8.4,8.4,8.4h74.2c4.7,0,8.4-3.8,8.4-8.4
		C166.3,462.4,162.6,458.6,157.9,458.6z"/>
	<path class="st0" d="M108.6,130.5c-5.3-1.2-8.9-4-11.8-6.3c-2.5-2-4.5-3.5-6.8-3.5c-4.7,0-8.2,6-8.2,10.1c0,8.9,14.2,16.3,27,17.3
		l0.5,0v0.5c0,2.1,0.9,4.1,2.6,5.4c1,1,2.4,1.5,4,1.5c0,0,0.2,0,0.2,0c3.8,0,6.9-3.1,6.9-6.9v-1.2l0.4-0.1
		c14.9-3.4,23.5-13.9,23.5-28.9c0-17.1-11.3-23.9-23.5-28.7l-0.3-0.1V66l0.6,0.1c3.5,0.7,6,1.9,8,2.9c1.9,1,3.4,1.7,5.1,1.7
		c5.4,0,7.8-6.6,7.8-9.9c0-2.2-1.5-9.6-20.9-11.1l-0.5,0v-1.3c0-3.8-3.1-6.9-6.9-6.9c-3.8,0-6.9,3.1-6.9,6.9v1.7l-0.4,0.1
		c-15.6,2.8-24.6,12.6-24.6,26.8c0,17.8,14.9,23.4,24.7,27.1l0.3,0.1v26.5L108.6,130.5z M122.9,110l0.8,0.5c3.7,2.5,5.4,5.5,5.4,9.6
		c0,4.1-1.9,7.3-5.4,9.1l-0.7,0.4V110z M108.5,84c-3.1-1.5-6.6-3.9-6.6-8.8c0-3.8,2.2-6.5,6.6-8.1l0.7-0.2v17.5L108.5,84z"/>
	<path class="st0" d="M317.2,17.2h198.6c4.7,0,8.4-3.8,8.4-8.4s-3.8-8.4-8.4-8.4H317.2c-4.7,0-8.4,3.8-8.4,8.4
		S312.6,17.2,317.2,17.2z"/>
	<path class="st0" d="M515.9,33.5H369.6c-4.7,0-8.4,3.8-8.4,8.4c0,4.7,3.8,8.4,8.4,8.4h146.2c4.7,0,8.4-3.8,8.4-8.4
		C524.3,37.2,520.5,33.5,515.9,33.5z"/>
</g>
</svg>
