<?xml version="1.0" encoding="utf-8"?>
<!-- Generator: Adobe Illustrator 21.0.0, SVG Export Plug-In . SVG Version: 6.00 Build 0)  -->
<svg version="1.1" id="Capa_1" xmlns="http://www.w3.org/2000/svg" xmlns:xlink="http://www.w3.org/1999/xlink" x="0px" y="0px"
	 width="512px" height="512px" viewBox="0 0 512 512" style="enable-background:new 0 0 512 512;" xml:space="preserve">
<style type="text/css">
	.st0{fill:#323335;}
</style>
<g>
	<path class="st0" d="M247.8,247.5L247.8,247.5c0-4.6,3.7-8.2,8.2-8.2h0c4.6,0,8.2,3.7,8.2,8.2v0c0,4.6-3.7,8.2-8.2,8.2h0
		C251.4,255.7,247.8,252,247.8,247.5z"/>
	<path class="st0" d="M230.7,281.6L230.7,281.6c0-4.6,3.7-8.2,8.2-8.2h34.2c4.6,0,8.2,3.7,8.2,8.2v0c0,4.6-3.7,8.2-8.2,8.2h-34.2
		C234.4,289.9,230.7,286.2,230.7,281.6z"/>
	<path class="st0" d="M392.7,512c-4.5,0-8.2-3.7-8.2-8.2v-25.6c0-2.8,0.3-5.7,0.8-8.5l0.1-0.4h-19.3l0.1,0.4
		c0.5,2.8,0.7,5.7,0.8,8.5v25.6c0,4.5-3.7,8.2-8.2,8.2h-85.4c-4.5,0-8.2-3.7-8.2-8.2v-25.6c0-2.8,0.3-5.7,0.8-8.5l0.1-0.4h-19.3
		l0.1,0.4c0.5,2.8,0.7,5.7,0.8,8.5v25.6c0,4.5-3.7,8.2-8.2,8.2h-85.4c-4.5,0-8.2-3.7-8.2-8.2v-25.6c0-2.8,0.3-5.7,0.8-8.5l0.1-0.4
		h-19.3l0.1,0.4c0.5,2.8,0.7,5.7,0.8,8.5v25.6c0,4.5-3.7,8.2-8.2,8.2H33.9c-4.5,0-8.2-3.7-8.2-8.2v-25.6c0-3.2,0.3-6.4,0.9-9.6
		c4.5-24,25.4-41.4,49.8-41.4c3.1,0,6.3,0.3,9.4,0.9l0.3,0.1l0-0.3c3.3-22.3,20.5-39.5,42.8-42.8c2.5-0.4,5.1-0.6,7.6-0.6
		c25,0,46.6,18.6,50.3,43.4l0,0.3l0.3-0.1c3-0.6,6.1-0.9,9.1-0.9c3.1,0,6.1,0.3,9.1,0.9l0.3,0.1l0-0.3c3.3-22.3,20.5-39.5,42.8-42.8
		c2.5-0.4,5.1-0.6,7.6-0.6c25,0,46.6,18.6,50.3,43.4l0,0.3l0.3-0.1c3-0.6,6.1-0.9,9.1-0.9s6.1,0.3,9.1,0.9l0.3,0.1l0-0.3
		c3.3-22.3,20.5-39.5,42.8-42.8c2.5-0.4,5.1-0.6,7.6-0.6c25,0,46.6,18.6,50.3,43.4l0,0.3l0.3-0.1c3.1-0.6,6.2-0.9,9.3-0.9h0.2
		c13.6,0.1,26.3,5.4,35.8,15c9.5,9.6,14.8,22.4,14.7,36v25.6c0,4.5-3.7,8.2-8.2,8.2H392.7z M435.4,443.7c-19,0-34.5,15.5-34.5,34.5
		v17.4h68.9v-17.4C469.9,459.1,454.4,443.7,435.4,443.7z M315.8,443.7c-19,0-34.5,15.5-34.5,34.5v17.4h68.9v-17.4
		C350.3,459.1,334.8,443.7,315.8,443.7z M196.2,443.7c-19,0-34.5,15.5-34.5,34.5v17.4h68.9v-17.4
		C230.7,459.1,215.2,443.7,196.2,443.7z M76.6,443.7c-19,0-34.5,15.5-34.5,34.5v17.4h68.9v-17.4C111.1,459.1,95.6,443.7,76.6,443.7z
		 M375.6,400.9c-18.5,0-33.6,14.5-34.3,33l0,0.2l0.2,0.1c7.6,4.5,14,10.9,18.4,18.5l0.1,0.1h31.3l0.1-0.1c4.4-7.6,10.8-14,18.4-18.5
		l0.2-0.1l0-0.2c-0.7-17.8-15.2-32.3-33-33C376.5,400.9,376,400.9,375.6,400.9z M256,400.9c-18.5,0-33.6,14.5-34.3,33l0,0.2l0.2,0.1
		c7.6,4.5,14,10.9,18.4,18.5l0.1,0.1h31.3l0.1-0.1c4.4-7.6,10.8-14,18.4-18.5l0.2-0.1l0-0.2c-0.7-17.8-15.2-32.3-33-33
		C256.9,400.9,256.4,400.9,256,400.9z M136.4,400.9c-18.5,0-33.6,14.5-34.3,33l0,0.2l0.2,0.1c7.6,4.5,14,10.9,18.4,18.5l0.1,0.1H152
		l0.1-0.1c4.4-7.6,10.8-14,18.4-18.5l0.2-0.1l0-0.2c-0.7-17.8-15.2-32.3-33-33C137.3,400.9,136.8,400.9,136.4,400.9z"/>
	<path class="st0" d="M187.7,366.8c-4.5,0-8.2-3.7-8.2-8.2v-34.2c0-4.5,3.7-8.2,8.2-8.2h7.5l-4-26.2H33.9c-4.5,0-8.2-3.7-8.2-8.2
		v-231H8.2C3.7,50.7,0,47,0,42.4V8.2C0,3.7,3.7,0,8.2,0h495.5c4.5,0,8.2,3.7,8.2,8.2v34.2c0,4.5-3.7,8.2-8.2,8.2h-17.4v231
		c0,4.5-3.7,8.2-8.2,8.2H320.9l-4,26.2h7.5c4.5,0,8.2,3.7,8.2,8.2v34.2c0,4.5-3.7,8.2-8.2,8.2H187.7z M195.9,350.3h120.2v-17.7
		H195.9V350.3z M211.8,316.1h88.4l14.5-94.6H197.3L211.8,316.1z M323.4,273.4h146.4V50.7H42.1v222.7h146.4l-8-51.9H162
		c-3.8,0-7.1-2.6-8-6.2l-8.5-34.2c-0.2-0.7-0.2-1.3-0.2-2c0-4.5,3.7-8.2,8.2-8.2h17.4v-25.9c0-2.2,0.9-4.3,2.4-5.8l17.3-17.3
		l-0.1-0.2c-1.6-3.4-2.5-7.1-2.5-10.8c0-14,11.4-25.3,25.3-25.3c14,0,25.3,11.4,25.3,25.3c0,14-11.4,25.3-25.3,25.3
		c-3.7,0-7.5-0.9-10.8-2.5l-0.2-0.1l-14.9,14.9v22.5h137.3v-22.5l-14.9-14.9l-0.2,0.1c-3.4,1.6-7.1,2.5-10.8,2.5
		c-14,0-25.3-11.4-25.3-25.3c0-14,11.4-25.3,25.3-25.3c14,0,25.3,11.4,25.3,25.3c0,3.7-0.9,7.5-2.5,10.8l-0.1,0.2l17.3,17.3
		c1.6,1.6,2.4,3.6,2.4,5.8v25.9h17.4c0.7,0,1.3,0.1,2,0.2c4.4,1.1,7.1,5.6,6,10l-8.5,34.2c-0.9,3.7-4.2,6.2-8,6.2h-18.6L323.4,273.4
		z M168.5,205h175.1l4.4-17.7H164L168.5,205z M298.7,101.9c-4.9,0-8.8,4-8.8,8.8c0,4.9,4,8.8,8.8,8.8s8.8-4,8.8-8.8
		C307.6,105.9,303.6,101.9,298.7,101.9z M213.3,101.9c-4.9,0-8.8,4-8.8,8.8c0,4.9,4,8.8,8.8,8.8c4.9,0,8.8-4,8.8-8.8
		C222.1,105.9,218.2,101.9,213.3,101.9z M16.5,34.2h479V16.5h-479V34.2z"/>
</g>
</svg>
