<?xml version="1.0" encoding="utf-8"?>
<!-- Generator: Adobe Illustrator 21.0.0, SVG Export Plug-In . SVG Version: 6.00 Build 0)  -->
<svg version="1.1" id="Layer_1" xmlns="http://www.w3.org/2000/svg" xmlns:xlink="http://www.w3.org/1999/xlink" x="0px" y="0px"
	 width="489.7px" height="512px" viewBox="0 0 489.7 512" style="enable-background:new 0 0 489.7 512;" xml:space="preserve">
<style type="text/css">
	.st0{fill:#323335;}
</style>
<g>
	<g>
		<g>
			<path class="st0" d="M457,372c-1.6-4.4-6.4-6.7-10.7-5.1c-4.4,1.6-6.7,6.4-5.1,10.7c4.8,13.6-0.1,28.9-11.9,37.2
				c-14.6,10.2-34.8,6.7-45-7.9c-5-7.1-6.9-15.6-5.4-24.1c1.5-8.5,6.2-15.9,13.3-20.9c10.7-7.5,24.7-7.9,35.8-0.9
				c3.9,2.5,9.1,1.3,11.6-2.6c2.5-3.9,1.3-9.1-2.6-11.6c-16.8-10.5-38.1-10-54.4,1.4c-22.2,15.6-27.5,46.3-12,68.4
				c9.5,13.6,24.8,20.9,40.3,20.9c9.8,0,19.6-2.9,28.2-8.9C456.9,416,464.3,392.7,457,372z"/>
		</g>
	</g>
	<g>
		<g>
			<path class="st0" d="M473.6,340.6c-11.7-15.4-28.6-25.9-47.7-29.7c-19.1-3.7-38.8-0.4-55.4,9.5c-5.3,3.1-10.1,6.8-14.4,11
				l-66.6-94.8l30.1-172.2c16.8,28.7,23,62.6,17.2,95.7L319.7,258c-0.8,4.6,2.3,8.9,6.8,9.7c0.5,0.1,1,0.1,1.5,0.1
				c4,0,7.5-2.9,8.3-7l17.1-97.9c7.8-44.5-3.9-90.2-31.9-125.6c-2.1-2.6-5.4-3.7-8.6-2.9c-3.2,0.8-5.6,3.4-6.2,6.7l-30.8,176
				l-46.9-66.8c-2.7-3.8-7.9-4.7-11.7-2c-3.8,2.7-4.7,7.9-2,11.7L321,310.7l-20.6,28.9L199.7,196.2c-19.3-27.5-28.1-60.8-25.1-94
				l24.2,34.4c2.7,3.8,7.9,4.7,11.7,2c3.8-2.7,4.7-7.9,2-11.7l-36-51.3c-1.9-2.7-5.2-4-8.5-3.4c-3.2,0.6-5.8,3.1-6.6,6.3
				c-10.4,43.9-1.4,90.3,24.5,127.2l73.6,104.7l-6.7,38.3c-3.8-1.3-7.7-2.3-11.6-2.9c-20.8-3.6-41.7,1-59,13.2
				c-17.3,12.1-28.8,30.3-32.4,51c-3.6,20.8,1,41.7,13.2,59c12.1,17.3,30.3,28.8,51,32.4c4.6,0.8,9.2,1.2,13.8,1.2
				c16.1,0,31.8-4.9,45.2-14.4c17.3-12.1,28.8-30.3,32.4-51l8.6-49.2l31.4,44.7c12.4,17.7,31,29.5,52.2,33.1
				c4.6,0.8,9.2,1.2,13.7,1.2c16.1,0,31.6-4.9,44.9-14.3c17.6-12.5,29.2-31.1,32.5-52.5C492.1,379.1,486.7,357.9,473.6,340.6z
				 M288.8,434.5c-2.9,16.4-11.9,30.6-25.5,40.2c-13.6,9.5-30.1,13.2-46.5,10.4c-16.4-2.9-30.6-11.9-40.2-25.5
				c-9.6-13.6-13.2-30.1-10.4-46.5c2.9-16.4,11.9-30.6,25.5-40.2s30.1-13.2,46.5-10.4c6,1,11.8,3,17.2,5.7c2.4,1.2,5.2,1.2,7.5,0
				c2.4-1.2,4-3.4,4.5-6.1l5.6-32.1l27.2,38.7L288.8,434.5z M472.2,397.9c-2.6,16.8-11.7,31.5-25.6,41.3
				c-13.4,9.4-29.7,13.1-46.1,10.3c-16.8-2.9-31.5-12.2-41.4-26.2l-43-61.3c0,0,0,0,0,0l-5.5-7.8l20.6-28.9l17.1,24.4
				c1.5,2.2,4,3.5,6.6,3.6c2.7,0.1,5.2-1.1,6.8-3.2c4.8-6.1,10.6-11.1,17.3-15.1c13-7.7,28.5-10.4,43.6-7.4
				c15.1,3,28.4,11.2,37.6,23.3C470.5,364.4,474.8,381.1,472.2,397.9z"/>
		</g>
	</g>
	<g>
		<g>
			<path class="st0" d="M236,375.4c-12.9-2.3-26,0.6-36.7,8.2c-10.7,7.5-17.9,18.8-20.2,31.7c-4.7,26.7,13.2,52.2,39.9,56.8
				c2.9,0.5,5.7,0.7,8.6,0.7c10,0,19.8-3.1,28.1-8.9c10.7-7.5,17.9-18.8,20.2-31.7C280.6,405.6,262.7,380.1,236,375.4z M259.4,429.3
				c-3.1,17.6-19.8,29.3-37.4,26.3c-17.6-3.1-29.3-19.8-26.3-37.4c3.1-17.6,19.8-29.3,37.4-26.3C250.7,395,262.5,411.8,259.4,429.3z
				"/>
		</g>
	</g>
	<g>
		<g>
			<path class="st0" d="M298,292.4c-3.2-1.7-7.1-1.2-9.7,1.3c-2.9,2.8-3.4,7.4-1.2,10.7c4.1,6.2,14,4,15.2-3.2
				C302.9,297.7,301.1,294.1,298,292.4z"/>
		</g>
	</g>
	<g>
		<g>
			<path class="st0" d="M157.4,317.8l-0.1-0.3c-2-11.3-11.9-19.5-23.4-19.5H91.3c-7.8,0-14.9-2.9-19.3-7.5h54.9
				c4.6,0,8.4-3.8,8.4-8.4s-3.8-8.4-8.4-8.4H65.8c-1-4.8-1.9-9.6-2.8-14.4h59.1c4.6,0,8.4-3.8,8.4-8.4s-3.8-8.4-8.4-8.4H60.3
				c-0.7-4.8-1.3-9.6-1.9-14.4h61.8c4.6,0,8.4-3.8,8.4-8.4c0-4.6-3.8-8.4-8.4-8.4H56.8c-0.4-4.8-0.7-9.6-0.9-14.4h64.4
				c4.6,0,8.4-3.8,8.4-8.4s-3.8-8.4-8.4-8.4H55.3c-0.1-4.8-0.1-9.6,0-14.4h65.5c4.6,0,8.4-3.8,8.4-8.4s-3.8-8.4-8.4-8.4h-65
				c0.2-4.8,0.5-9.6,0.9-14.4h65.3c4.6,0,8.4-3.8,8.4-8.4s-3.8-8.4-8.4-8.4H58.4c0.5-4.8,1.2-9.6,1.9-14.4h63.8
				c4.6,0,8.4-3.8,8.4-8.4s-3.8-8.4-8.4-8.4H63c0.9-4.8,1.8-9.6,2.8-14.4h61.1c4.6,0,8.4-3.8,8.4-8.4c0-4.6-3.8-8.4-8.4-8.4H72
				c4.4-4.5,11.5-7.5,19.3-7.5H134c11.5,0,21.3-8.2,23.4-19.5l0.1-0.3c1.2-6.9-0.6-14-5.1-19.4C147.7,3.1,141.1,0,134,0H54
				C34.6,0,17.6,13.1,12.5,31.9C2.9,67-6.1,148.9,5.3,339c0.3,4.6,4.3,8.2,8.9,7.9c4.6-0.3,8.2-4.3,7.9-8.9
				c-8.9-148.7-6.6-253,6.6-301.7C31.8,24.8,42.2,16.8,54,16.8h80c2.8,0,4.6,1.6,5.3,2.5c0.8,0.9,2,2.9,1.5,5.8l0,0.2
				c-0.6,3.3-3.5,5.7-6.8,5.7H91.3c-19.4,0-36.1,11.7-39.8,27.8c-17.4,75.7-17.4,152.4,0,228c3.7,16.1,20.4,27.8,39.8,27.8H134
				c3.4,0,6.2,2.4,6.8,5.7l0.1,0.3c0.5,2.8-0.7,4.7-1.5,5.7c-0.8,0.9-2.5,2.5-5.3,2.5h-28.1c-16.2,0-29.8,12.6-30.9,28.8l-8.9,122.2
				c-0.6,8.6-7.9,15.4-16.5,15.4c-8.6,0-15.7-6.5-16.5-15c-2.4-25.2-5.8-65-9-111.7c-0.3-4.6-4.3-8.1-8.9-7.8
				c-4.6,0.3-8.1,4.3-7.8,8.9c3.2,47,6.7,86.9,9,112.2C17.9,499,32.2,512,49.6,512c17.4,0,32-13.6,33.3-31l8.9-122.2
				c0.5-7.4,6.8-13.2,14.2-13.2H134c7,0,13.7-3.1,18.2-8.5C156.8,331.8,158.6,324.7,157.4,317.8z"/>
		</g>
	</g>
</g>
</svg>
