<?xml version="1.0" encoding="utf-8"?>
<!-- Generator: Adobe Illustrator 21.0.0, SVG Export Plug-In . SVG Version: 6.00 Build 0)  -->
<svg version="1.1" id="Capa_1" xmlns="http://www.w3.org/2000/svg" xmlns:xlink="http://www.w3.org/1999/xlink" x="0px" y="0px"
	 width="564.9px" height="512px" viewBox="0 0 564.9 512" style="enable-background:new 0 0 564.9 512;" xml:space="preserve">
<style type="text/css">
	.st0{fill:#323335;}
</style>
<g>
	<path class="st0" d="M333.2,396.5c-11.9,0-22.3-5.7-22.3-12.3c0-3.2,2.9-8.1,6.7-8.1c1.9,0,3.6,1.3,5.3,2.6c2.5,1.9,5.3,4.1,10,4.1
		c3.8,0,8.3-1.4,8.3-5.5c0-4.2-4.9-6.5-10.5-9.1c-8.1-3.7-18.1-8.4-18.1-21c0-14.2,12.7-19.2,23.6-19.2c3.1,0,18.5,0.4,18.5,8.5
		c0,2.8-1.8,7.9-6.1,7.9c-1.4,0-2.5-0.6-3.8-1.3c-2-1-4.2-2.2-8.5-2.2c-5.3,0-8.5,1.9-8.5,4.9c0,3.2,4.1,5,9.2,7.2
		c8.2,3.6,19.4,8.6,19.4,22.9C356.3,388.5,347.2,396.5,333.2,396.5z"/>
	<path class="st0" d="M401.7,395.6c-3.5,0-4.7-1.6-5.1-3l-3-10.9h-18.3l-3,10.9c-0.4,1.4-1.6,3-5.1,3c-3.9,0-9.5-2.5-9.5-6.3
		c0-0.4,0.1-0.8,0.2-1.1l16.8-55.1c1-3.1,4.8-5.1,9.7-5.1s8.7,2,9.7,5.1l16.9,55.1c0.1,0.4,0.2,0.7,0.2,1.1c0,2.3-2,3.8-3.2,4.5
		C406.2,394.9,403.8,395.6,401.7,395.6z M378.5,369.8h11.9l-5.9-21.8L378.5,369.8z"/>
	<path class="st0" d="M434.3,396.2c-4.9,0-8.7-2-9.7-5.1L407.7,336c-0.1-0.4-0.2-0.7-0.2-1.1c0-2.3,2-3.8,3.2-4.5
		c1.8-1.1,4.3-1.8,6.4-1.8c3.5,0,4.7,1.6,5.1,3l12.2,44.6l12.1-44.6c0.4-1.4,1.6-3,5.1-3c3.9,0,9.5,2.5,9.5,6.3
		c0,0.4-0.1,0.8-0.2,1.1L444,391.1C443.1,394.2,439.2,396.2,434.3,396.2z"/>
	<path class="st0" d="M471.9,395.6c-3.2,0-6.7-1.5-6.7-4.8v-57.4c0-3.3,3.5-4.8,6.7-4.8h32.2c3.3,0,4.8,3.4,4.8,6.6
		c0,4-2,6.7-4.8,6.7h-23.7v14.3h13c2.8,0,4.8,2.5,4.8,6c0,2.9-1.6,5.8-4.8,5.8h-13v14.3h23.7c2.8,0,4.8,2.8,4.8,6.7
		c0,3.2-1.5,6.6-4.8,6.6H471.9z"/>
	<path class="st0" d="M265.5,504.1c-3.2,0-6.7-1.5-6.7-4.8v-57.4c0-3.3,3.5-4.8,6.7-4.8h32.2c3.3,0,4.8,3.4,4.8,6.6
		c0,4-2,6.7-4.8,6.7h-23.7v14.3h13c2.8,0,4.8,2.5,4.8,6c0,2.9-1.6,5.8-4.8,5.8h-13v14.4h23.7c2.8,0,4.8,2.8,4.8,6.7
		c0,3.2-1.5,6.6-4.8,6.6H265.5z"/>
	<path class="st0" d="M315.1,504.1c-3.6,0-7.6-1.5-7.6-4.8v-57.4c0-2.9,3-4.8,7.6-4.8c5.2,0,7.3,0.6,10.8,7.3l12.4,23.6l1.3-0.3
		v-25.8c0-2.9,3-4.8,7.6-4.8c4.6,0,7.6,1.9,7.6,4.8v57.5c0,3.3-3.9,4.8-7.6,4.8c-3,0-6.4-0.5-8.3-4.1L324,472.9l-1.3,0.3v26
		C322.6,502.5,318.7,504.1,315.1,504.1z"/>
	<path class="st0" d="M370.1,504.1c-3.2,0-6.7-1.5-6.7-4.8v-57.4c0-3.3,3.5-4.8,6.7-4.8h32.2c3.3,0,4.8,3.4,4.8,6.6
		c0,4-2,6.7-4.8,6.7h-23.7v14.3h13c2.8,0,4.8,2.5,4.8,6c0,2.9-1.6,5.8-4.8,5.8h-13v14.3h23.7c2.8,0,4.8,2.8,4.8,6.7
		c0,3.2-1.5,6.6-4.8,6.6H370.1z"/>
	<path class="st0" d="M449.4,504.6c-2,0-3.8-1.1-4.7-2.9l-12.2-23.8h-5.1v21.3c0,3.3-3.9,4.8-7.6,4.8s-7.6-1.5-7.6-4.8l0-57.7
		c0.1-2.5,2.2-4.5,4.7-4.5l18.8,0c14.9,0,22.7,6.9,22.7,19.8c0,8.8-3.6,15.3-10,18.3l-0.7,0.3l10.7,19.5c0.4,0.6,0.5,1.2,0.5,1.9
		c0,3.7-4.9,7.8-9.4,7.8C449.5,504.6,449.5,504.6,449.4,504.6z M427.3,466.1h8.4c5.3,0,7.6-2.4,7.6-7.9c0-5.5-2.4-7.9-7.6-7.9h-8.4
		V466.1z"/>
	<path class="st0" d="M486.9,504.6c-14.6,0-22.6-7.8-22.6-21.8l0-23.9c0-13.9,8.1-21.8,22.2-21.8c13.9,0,23.2,7.4,23.2,18.5
		c0,6-2.8,7.2-7.6,7.2c-4.9,0-7.5-1.6-7.6-4.7c-0.1-3-0.2-7.6-7.5-7.6c-5.1,0-7.6,2.9-7.6,8.5v23.9c0,5.7,2.5,8.5,7.5,8.5
		c3.5,0,7.6-1.5,7.6-8.5v-2.6h-4.8c-2.8,0-4.8-2.5-4.8-5.9c0-2.9,1.8-5.9,4.8-5.9h15.2c0.1,0,0.2,0,0.3,0c2.6,0.2,4.5,2.4,4.4,5v9.5
		C509.6,496.8,501.5,504.6,486.9,504.6z"/>
	<path class="st0" d="M538.2,504.1c-3.6,0-7.6-1.5-7.6-4.8v-22.7c0-0.3-0.1-0.7-0.3-1l-18.7-31.1c-0.2-0.4-0.2-0.8-0.2-1.2
		c0-2.2,2.1-3.8,3.4-4.5c2-1.1,4.5-1.8,6.7-1.8c2.6,0,3.5,1.2,4.5,2.9l12.2,22.4l12.1-22.3c0.7-1.8,2.4-3,4.2-3c0.1,0,0.2,0,0.4,0
		c4,0,10,2.5,10,6.3c0,0.4-0.1,0.8-0.2,1.2L546,475.5c-0.2,0.3-0.3,0.6-0.3,1v22.7C545.7,502.5,541.8,504.1,538.2,504.1z"/>
	<path class="st0" d="M196.3,512c-70.3,0-136-38.3-171.4-99.9C9.7,385.8,1.1,355.9,0.1,325.5c-0.9-32.2,7.3-63.8,23.7-91.5
		c0.1-0.2,0.3-0.4,0.4-0.6l165.6-230c1.5-2.1,3.9-3.3,6.5-3.3c2.6,0,5,1.3,6.5,3.3L368.4,234c0.1,0.2,0.3,0.4,0.4,0.6
		c15.3,25.7,23.5,55,23.8,84.9c0,2.1-0.8,4.2-2.3,5.7c-1.5,1.5-3.5,2.4-5.7,2.4c-4.4,0-8.1-3.6-8.1-8c-0.3-26.9-7.7-53.4-21.4-76.6
		L196.3,21.8L37.5,242.5c-14.8,25-22.1,53.5-21.3,82.6c0.9,27.7,8.8,55.1,22.7,79.1c32.5,56.6,92.9,91.8,157.4,91.8
		c16.8,0,33.4-2.3,49.4-6.9l0.1,0c0.7-0.2,1.4-0.3,2.2-0.3c3.6,0,6.8,2.4,7.7,5.9c0.6,2.1,0.3,4.2-0.7,6.1c-1.1,1.9-2.8,3.2-4.8,3.8
		c-17.5,5-35.5,7.5-53.7,7.5H196.3z"/>
	<path class="st0" d="M193.2,443.1c-0.8,0-1.6-0.1-2.4-0.4c-3.5-1.1-5.8-4.5-5.6-8.1l5.3-90.1h-35.7c-0.2,0-0.4,0-0.6,0
		c-4.4-0.3-7.7-4.2-7.4-8.6l11.9-152.4c0.3-4.2,3.8-7.4,8-7.4h84.9c0.4,0,0.9,0,1.3,0.1c2.1,0.3,4,1.5,5.2,3.2
		c1.3,1.7,1.8,3.9,1.4,6L246,267.8h44.5c1.5,0,2.9,0.4,4.2,1.2c1.8,1.1,3.1,2.9,3.6,5c0.5,2.1,0.2,4.2-1,6.1l-97.3,159.2
		C198.6,441.6,196,443.1,193.2,443.1z M163.4,328.5H199c0.2,0,0.3,0,0.5,0c4.4,0.3,7.8,4.1,7.6,8.5l-3.7,63.7l1.3,0.4l71.6-117.1
		h-39.6c-0.4,0-0.9,0-1.3-0.1c-4.4-0.7-7.4-4.9-6.6-9.2l13.5-82.5h-68L163.4,328.5z"/>
</g>
</svg>
