<?xml version="1.0" encoding="utf-8"?>
<!-- Generator: Adobe Illustrator 21.0.0, SVG Export Plug-In . SVG Version: 6.00 Build 0)  -->
<svg version="1.1" id="Capa_1" xmlns="http://www.w3.org/2000/svg" xmlns:xlink="http://www.w3.org/1999/xlink" x="0px" y="0px"
	 width="512px" height="512px" viewBox="0 0 512 512" style="enable-background:new 0 0 512 512;" xml:space="preserve">
<style type="text/css">
	.st0{fill:#323335;}
</style>
<g>
	<path class="st0" d="M256,297c-22.6,0-41-18.4-41-41s18.4-41,41-41s41,18.4,41,41S278.6,297,256,297z M256,230.8
		c-13.9,0-25.2,11.3-25.2,25.2c0,13.9,11.3,25.2,25.2,25.2c13.9,0,25.2-11.3,25.2-25.2C281.2,242.1,269.9,230.8,256,230.8z"/>
</g>
<g>
	<path class="st0" d="M182,512V390.9c0-28.1,12.8-54.1,35.2-71.4l0.5-0.4l-0.5-0.3c-2.9-1.8-5.3-3.5-7.5-5.3l-0.1-0.1l-135.4,0
		c-40.8,0-74-33.2-74-74V182h121.1c28,0,54.1,12.8,71.4,35.2l0.4,0.5l0.3-0.5c1.8-2.9,3.5-5.3,5.3-7.5l0.1-0.1l0-135.4
		c0-40.8,33.2-74,74-74H330v121.1c0,28-12.8,54.1-35.2,71.4l-0.5,0.4l0.5,0.3c2.9,1.8,5.3,3.5,7.5,5.3l0.1,0.1l135.4,0
		c40.8,0,74,33.2,74,74V330H390.9c-28,0-54.1-12.8-71.4-35.2l-0.4-0.5l-0.3,0.5c-1.8,2.9-3.5,5.3-5.3,7.5l-0.1,0.1l0,135.4
		c0,40.8-33.2,74-74,74H182z M239.5,496.3c32.2,0,58.3-26.1,58.3-58.3V317.1l-0.6,0.4c-4.9,3.3-10.5,6.1-16.5,8.2l-0.3,0.1v54.3
		c0,18-8.6,35.2-23,46l-6.6,5c-3.5,2.6-8.4,1.9-11-1.6h0c-2.6-3.5-1.9-8.4,1.6-11l6.6-5c10.5-7.8,16.7-20.3,16.7-33.4v-50.6l-0.4,0
		c-2.9,0.3-5.6,0.5-8.2,0.5c-7.2,0-14.5-1.1-21.4-3.2l-0.2-0.1l-0.2,0.1c-22.5,13.5-36.5,38-36.5,64v105.3H239.5z M329.6,247.8
		c0.3,2.9,0.5,5.6,0.5,8.2c0,7.2-1.1,14.4-3.2,21.4l-0.1,0.2l0.1,0.1c13.7,22.9,37.6,36.5,64,36.5h105.4v-41.8
		c0-32.2-26.1-58.3-58.3-58.3H317.1l0.4,0.6c3.3,4.9,6.1,10.5,8.2,16.5l0.1,0.3h54.3c18,0,35.2,8.6,46,23l5,6.6
		c2.6,3.5,1.9,8.4-1.6,11v0c-3.5,2.6-8.4,1.9-11-1.6l-5-6.6c-7.8-10.5-20.3-16.7-33.4-16.7h-50.6L329.6,247.8z M256,197.7
		c-32.1,0-58.3,26.2-58.3,58.3s26.2,58.3,58.3,58.3s58.3-26.2,58.3-58.3S288.1,197.7,256,197.7z M15.7,239.5
		c0,32.2,26.1,58.3,58.3,58.3h120.9l-0.4-0.6c-3.3-4.9-6.1-10.5-8.2-16.5l-0.1-0.3h-54.3c-18,0-35.2-8.6-46-23l-5-6.6
		c-2.6-3.5-1.9-8.4,1.6-11l0,0c3.5-2.6,8.4-1.9,11,1.6l5,6.6c7.8,10.5,20.3,16.7,33.4,16.7h50.6l-0.1-0.4c-0.3-2.9-0.5-5.6-0.5-8.2
		c0-7.2,1.1-14.4,3.2-21.4l0.1-0.2l-0.1-0.1c-13.7-22.9-37.6-36.5-64-36.5H15.7V239.5z M272.5,15.7c-32.2,0-58.3,26.1-58.3,58.3
		v120.9l0.6-0.4c4.9-3.3,10.5-6.1,16.5-8.2l0.3-0.1v-54.3c0-18,8.6-35.2,23-46l6.6-5c3.5-2.6,8.4-1.9,11,1.6l0,0
		c2.6,3.5,1.9,8.4-1.6,11l-6.6,5c-10.5,7.9-16.7,20.3-16.7,33.4v50.6l0.4-0.1c2.9-0.3,5.6-0.5,8.2-0.5c7.2,0,14.4,1.1,21.4,3.2
		l0.2,0.1l0.1-0.1c22.9-13.7,36.5-37.6,36.5-64V15.7H272.5z"/>
</g>
<g>
	<path class="st0" d="M164.8,430.7c-1.3,0-2.6-0.3-3.8-1c-27-14.8-50.5-36-68-61.4c-2.5-3.6-1.6-8.6,2-11.1c3.6-2.5,8.6-1.6,11.1,2
		c16.1,23.3,37.7,42.9,62.6,56.5c3.9,2.1,5.3,7,3.2,10.9C170.3,429.2,167.6,430.7,164.8,430.7z"/>
</g>
<g>
	<path class="st0" d="M355.5,425.9c-2.7,0-5.3-1.4-6.8-3.8c-2.3-3.8-1.1-8.7,2.6-11c26.9-16.6,49.2-40,64.4-67.7
		c2.1-3.9,7-5.3,10.9-3.2c3.9,2.1,5.3,7,3.2,10.9c-16.5,30.1-40.8,55.6-70,73.6C358.4,425.5,356.9,425.9,355.5,425.9z"/>
</g>
<g>
	<path class="st0" d="M412.5,156.2c-2.5,0-5-1.2-6.6-3.5c-16.1-23.3-37.7-42.9-62.5-56.5c-3.9-2.1-5.3-7-3.2-10.9
		c2.1-3.9,7-5.3,10.9-3.2c27,14.8,50.5,36,68,61.4c2.5,3.6,1.6,8.6-2,11.1C415.7,155.8,414.1,156.2,412.5,156.2z"/>
</g>
<g>
	<path class="st0" d="M89.3,172.7c-1.3,0-2.6-0.3-3.8-1c-3.9-2.1-5.3-7-3.2-10.9c14.8-27,36.1-50.5,61.4-68c3.6-2.5,8.6-1.6,11.1,2
		c2.5,3.6,1.6,8.6-2,11.1c-23.3,16.1-42.9,37.7-56.5,62.5C94.9,171.2,92.1,172.7,89.3,172.7z"/>
</g>
<g>
	<path class="st0" d="M34,172.6c-1,0-2-0.2-3-0.6c-4.1-1.7-6-6.4-4.3-10.4C50.7,103.2,95.5,56.6,153,30.3c4-1.8,8.8-0.1,10.6,3.9
		c1.8,4,0.1,8.8-3.9,10.6c-53.7,24.6-95.7,68.2-118.2,122.7C40.1,170.7,37.2,172.6,34,172.6z"/>
</g>
<g>
	<path class="st0" d="M164.5,485.9c-1,0-2.1-0.2-3.1-0.6c-40-16.5-75.2-43.4-101.8-77.8c-2.7-3.5-2.1-8.5,1.4-11.2
		c3.5-2.7,8.5-2.1,11.2,1.4c24.9,32.2,57.8,57.3,95.2,72.8c4.1,1.7,6,6.4,4.3,10.4C170.6,484.1,167.6,485.9,164.5,485.9z"/>
</g>
<g>
	<path class="st0" d="M362.7,479.1c-2.9,0-5.8-1.6-7.2-4.4c-2-4-0.4-8.8,3.6-10.7c50.4-25.1,90-67.5,111.5-119.5
		c1.7-4.1,6.4-6,10.4-4.3c4.1,1.7,6,6.4,4.3,10.4c-22.9,55.6-65.2,100.9-119.1,127.7C365.1,478.8,363.9,479.1,362.7,479.1z"/>
</g>
<g>
	<path class="st0" d="M462.8,142.1c-2.7,0-5.4-1.4-6.9-3.9c-25.6-43.3-65.2-77.6-111.5-96.7c-4.1-1.7-6-6.4-4.3-10.4
		c1.7-4.1,6.4-6,10.4-4.3C400,47.1,442.3,83.8,469.7,130c2.2,3.8,1,8.7-2.8,11C465.6,141.7,464.2,142.1,462.8,142.1z"/>
</g>
</svg>
