<?xml version="1.0" encoding="utf-8"?>
<!-- Generator: Adobe Illustrator 21.0.0, SVG Export Plug-In . SVG Version: 6.00 Build 0)  -->
<svg version="1.1" id="Слой_1" xmlns="http://www.w3.org/2000/svg" xmlns:xlink="http://www.w3.org/1999/xlink" x="0px" y="0px"
	 width="512px" height="512px" viewBox="0 0 512 512" style="enable-background:new 0 0 512 512;" xml:space="preserve">
<style type="text/css">
	.st0{fill:#323335;}
</style>
<g>
	<path class="st0" d="M40,512c-22,0-40-17.9-40-40V40c0-22,17.9-40,40-40h432c22,0,40,17.9,40,40v432c0,22-17.9,40-40,40H40z M40,16
		c-13.2,0-24,10.8-24,24v432c0,13.2,10.8,24,24,24h432c13.2,0,24-10.8,24-24V40c0-13.2-10.8-24-24-24H40z"/>
	<path class="st0" d="M104,448c-13.2,0-24-10.8-24-24V248c0-13.2,10.8-24,24-24h256c4.4,0,8,3.6,8,8s-3.6,8-8,8H104
		c-4.4,0-8,3.6-8,8v176c0,4.4,3.6,8,8,8h16c4.4,0,8,3.6,8,8s-3.6,8-8,8H104z"/>
	<path class="st0" d="M152,448c-4.4,0-8-3.6-8-8s3.6-8,8-8h256c4.4,0,8-3.6,8-8V248c0-4.4-3.6-8-8-8h-16c-4.4,0-8-3.6-8-8s3.6-8,8-8
		h16c13.2,0,24,10.8,24,24v176c0,13.2-10.8,24-24,24H152z"/>
	<path class="st0" d="M256,360c-13.2,0-24-10.8-24-24c0-13.2,10.8-24,24-24c13.2,0,24,10.8,24,24C280,349.2,269.2,360,256,360z
		 M256,328c-4.4,0-8,3.6-8,8s3.6,8,8,8c4.4,0,8-3.6,8-8S260.4,328,256,328z"/>
	<path class="st0" d="M176,368c-2.5,0-4.9-1.2-6.4-3.2c-2.6-3.5-1.9-8.5,1.6-11.2L184,344H128c-4.4,0-8-3.6-8-8s3.6-8,8-8H184
		l-12.8-9.6c-1.7-1.3-2.8-3.1-3.1-5.3c-0.3-2.1,0.2-4.2,1.5-5.9c1.5-2,3.9-3.2,6.4-3.2c1.7,0,3.4,0.6,4.8,1.6l32,24
		c2,1.5,3.2,3.9,3.2,6.4c0,2.5-1.2,4.9-3.2,6.4l-32,24C179.4,367.4,177.7,368,176,368z"/>
	<path class="st0" d="M336,368c-1.7,0-3.4-0.6-4.8-1.6l-32-24c-2-1.5-3.2-3.9-3.2-6.4s1.2-4.9,3.2-6.4l32-24c1.4-1,3-1.6,4.8-1.6
		c2.5,0,4.9,1.2,6.4,3.2c1.3,1.7,1.8,3.8,1.5,5.9c-0.3,2.1-1.4,4-3.1,5.3L328,328H384c4.4,0,8,3.6,8,8s-3.6,8-8,8H328l12.8,9.6
		c3.5,2.6,4.2,7.7,1.6,11.2C340.9,366.8,338.5,368,336,368z"/>
	<path class="st0" d="M216,304.8c-2.1,0-4.1-0.8-5.6-2.3c-1.5-1.5-2.4-3.5-2.4-5.6c0-2.1,0.8-4.1,2.3-5.7
		c12.1-12.4,28.4-19.2,45.7-19.2c17.3,0,33.6,6.8,45.7,19.2c1.5,1.5,2.3,3.5,2.3,5.7c0,2.1-0.9,4.1-2.4,5.6
		c-1.5,1.5-3.5,2.3-5.6,2.3c0,0,0,0,0,0c-2.2,0-4.2-0.8-5.7-2.4C281.2,293.1,269,288,256,288c-13,0-25.2,5.1-34.3,14.4
		C220.2,303.9,218.2,304.8,216,304.8z"/>
	<path class="st0" d="M256,400c-17.3,0-33.6-6.8-45.7-19.2c-3.1-3.1-3-8.2,0.1-11.3c1.5-1.5,3.5-2.3,5.6-2.3c2.2,0,4.2,0.9,5.7,2.4
		c9.1,9.3,21.3,14.4,34.3,14.4c13,0,25.2-5.1,34.3-14.4c1.5-1.5,3.5-2.4,5.7-2.4c2.1,0,4.1,0.8,5.6,2.3c3.1,3.1,3.2,8.1,0.1,11.3
		C289.6,393.2,273.3,400,256,400z"/>
	<path class="st0" d="M128,168c-4.4,0-8-3.6-8-8V80c0-4.4,3.6-8,8-8h48c4.4,0,8,3.6,8,8s-3.6,8-8,8h-40v24h32c4.4,0,8,3.6,8,8
		s-3.6,8-8,8h-32v32C136,164.4,132.4,168,128,168z"/>
	<path class="st0" d="M328,168c-4.4,0-8-3.6-8-8V80c0-4.4,3.6-8,8-8h48c4.4,0,8,3.6,8,8s-3.6,8-8,8h-40v24h32c4.4,0,8,3.6,8,8
		s-3.6,8-8,8h-32v24h40c4.4,0,8,3.6,8,8s-3.6,8-8,8H328z"/>
	<path class="st0" d="M208,168c-4.4,0-8-3.6-8-8V80c0-4.4,3.6-8,8-8c4.4,0,8,3.6,8,8v80C216,164.4,212.4,168,208,168z"/>
	<path class="st0" d="M297.3,168c-3,0-5.8-1.7-7.1-4.4l-13.9-27.7c-1,0.1-2,0.1-3,0.1h-24v24c0,4.4-3.6,8-8,8c-4.4,0-8-3.6-8-8V80
		c0-4.4,3.6-8,8-8h32c17.6,0,32,14.3,32,32c0,10.5-5.2,20.4-13.9,26.4l13,26.1c2,3.9,0.4,8.7-3.6,10.7
		C299.8,167.7,298.6,168,297.3,168z M273.3,120c8.8,0,16-7.2,16-16c0-8.8-7.2-16-16-16h-24v32H273.3z"/>
</g>
</svg>
