<?xml version="1.0" encoding="utf-8"?>
<!-- Generator: Adobe Illustrator 21.0.0, SVG Export Plug-In . SVG Version: 6.00 Build 0)  -->
<svg version="1.1" id="Capa_1" xmlns="http://www.w3.org/2000/svg" xmlns:xlink="http://www.w3.org/1999/xlink" x="0px" y="0px"
	 width="512px" height="512px" viewBox="0 0 512 512" style="enable-background:new 0 0 512 512;" xml:space="preserve">
<style type="text/css">
	.st0{fill:none;}
	.st1{fill:#323335;}
</style>
<path class="st0" d="M371.8,361.1H469v-97.2h-67.4c-4.3,0-7.9-3.5-7.9-7.9s3.5-7.9,7.9-7.9H469v-97.2h-97.2V361.1z"/>
<path class="st1" d="M476.9,135.2h-48.6V35.1c0-19.4-15.8-35.1-35.1-35.1H62.3C43,0,27.2,15.8,27.2,35.1V273c0,4.3,3.5,7.9,7.9,7.9
	s7.9-3.5,7.9-7.9V35.1c0-10.7,8.7-19.4,19.4-19.4h330.8c10.7,0,19.4,8.7,19.4,19.4v100.1h-48.6c-4.3,0-7.9,3.5-7.9,7.9V369
	c0,4.3,3.5,7.9,7.9,7.9h48.6v100c0,10.7-8.7,19.4-19.4,19.4H62.3c-10.7,0-19.4-8.7-19.4-19.4V312.5c0-4.3-3.5-7.9-7.9-7.9
	s-7.9,3.5-7.9,7.9v164.4c0,19.4,15.8,35.1,35.1,35.1h330.8c19.4,0,35.1-15.8,35.1-35.1v-100h48.6c4.3,0,7.9-3.5,7.9-7.9V143
	C484.8,138.7,481.2,135.2,476.9,135.2z M469,248.1h-67.4c-4.3,0-7.9,3.5-7.9,7.9s3.5,7.9,7.9,7.9H469v97.2h-97.2V150.9H469V248.1z"
	/>
<path class="st1" d="M394.2,230.1c-2.8,0-5.4-1.5-6.8-3.9c-1.4-2.4-1.4-5.4,0-7.9l26.2-45.4c1.4-2.4,4-3.9,6.8-3.9s5.4,1.5,6.8,3.9
	l26.2,45.4c1.4,2.4,1.4,5.4,0,7.9c-1.4,2.4-4,3.9-6.8,3.9H394.2z M407.8,214.3H433l-12.6-21.8L407.8,214.3z"/>
<path class="st1" d="M420.4,343c-2.8,0-5.4-1.5-6.8-3.9l-26.2-45.4c-1.4-2.4-1.4-5.4,0-7.9c1.4-2.4,4-3.9,6.8-3.9h52.4
	c2.8,0,5.4,1.5,6.8,3.9c1.4,2.4,1.4,5.4,0,7.9l-26.2,45.4C425.8,341.5,423.2,343,420.4,343z M420.4,319.4l12.6-21.8h-25.2
	L420.4,319.4z"/>
<path class="st1" d="M336.6,468.5c0.1-0.1,0.2-0.2,0.3-0.4c0,0,0,0,0,0c0.7-1,1.1-2.3,1.3-3.6c0-0.3,0-0.5,0-0.8s0-0.5,0-0.8
	c-0.1-1.3-0.6-2.5-1.3-3.6c0,0,0,0,0,0c-0.1-0.1-0.2-0.3-0.3-0.4c-0.2-0.3-0.4-0.6-0.7-0.8c-0.2-0.2-0.5-0.5-0.8-0.7
	c-0.1-0.1-0.3-0.2-0.4-0.3c0,0,0,0,0,0c-1-0.7-2.3-1.2-3.6-1.3c-0.3,0-0.5,0-0.8,0l-62.4,0V306.4h25.4c4.3,0,7.9-3.5,7.9-7.9v-90.3
	c0-24.8-17.7-45.8-42.1-50l-9.6-1.7c-3.5-0.6-6.4-2.9-7.8-6.1l-0.8-1.7l1.6-1c13.4-8.6,21.4-23.1,21.4-39v-8.1
	c0-25.5-20.7-46.2-46.2-46.2s-46.2,20.7-46.2,46.2v8.1c0,15.8,8,30.4,21.4,39l1.6,1l-0.8,1.7c-1.4,3.2-4.4,5.5-7.8,6.1l-9.6,1.7
	c-24.4,4.2-42.1,25.2-42.1,50v90.3c0,4.3,3.5,7.9,7.9,7.9h25.4v149.4l-57.7,0c-4.3,0-7.9,3.5-7.9,7.9s3.5,7.9,7.9,7.9l220.6,0l0,0
	l0,0h0c1.8,0,3.4-0.6,4.8-1.6c0.3-0.2,0.5-0.4,0.8-0.7C336.1,469,336.4,468.8,336.6,468.5z M187.2,108.7v-8.1
	c0-16.8,13.7-30.5,30.5-30.5s30.5,13.7,30.5,30.5v8.1c0,16.8-13.7,30.5-30.5,30.5S187.2,125.5,187.2,108.7z M252.2,455.9h-26.6
	V338.7c0-4.3-3.5-7.9-7.9-7.9s-7.9,3.5-7.9,7.9v117.2h-26.6V290h69V455.9z M260,217.7c-4.3,0-7.9,3.5-7.9,7.9v48.7h-69v-48.7
	c0-4.3-3.5-7.9-7.9-7.9s-7.9,3.5-7.9,7.9v65.1h-17.6v-82.5c0-17.1,12.2-31.6,29-34.5l9.6-1.7c9.1-1.6,16.6-7.7,20-16.3l0.6-1.6
	l1.7,0.3c2.2,0.3,4.5,0.5,6.7,0.5c2.2,0,4.5-0.2,6.7-0.5l1.7-0.3l0.6,1.6c3.4,8.6,10.9,14.7,20,16.3l9.6,1.7
	c16.8,2.9,29,17.4,29,34.5v82.5h-17.6v-65.1C267.9,221.2,264.4,217.7,260,217.7z"/>
</svg>
