<?xml version="1.0" encoding="utf-8"?>
<!-- Generator: Adobe Illustrator 21.0.0, SVG Export Plug-In . SVG Version: 6.00 Build 0)  -->
<svg version="1.1" id="Слой_1" xmlns="http://www.w3.org/2000/svg" xmlns:xlink="http://www.w3.org/1999/xlink" x="0px" y="0px"
	 width="512px" height="512px" viewBox="0 0 512 512" style="enable-background:new 0 0 512 512;" xml:space="preserve">
<style type="text/css">
	.st0{fill:#323335;}
</style>
<g>
	<path class="st0" d="M416.8,512c-8.5,0-15.3-6.9-15.3-15.3V222.9c0-4.1-3.3-7.5-7.5-7.5h-59.7v0.5c0,11-9,20-20,20H197.7
		c-9.6,0-19.7-7.2-20-20.5h-38.6c-5.9,0-10.7,4.8-10.7,10.7v18.1h2.3c9,0,16.4,7.3,16.4,16.4v35c0,9-7.3,16.4-16.4,16.4H34.2
		c-9,0-16.4-7.3-16.4-16.4v-35c0-9,7.3-16.4,16.4-16.4h1.7v-46c0-41.6,33.8-75.4,75.4-75.4h66.5c0.2-13.3,10.4-20.5,20-20.5h24.6
		V85.1c-10.7-5.8-19.6-14.4-25.9-24.9h-0.9c-9.7,0-17.7-7.9-17.7-17.7V17.7c0-9.7,7.9-17.7,17.7-17.7h121.2
		c9.7,0,17.7,7.9,17.7,17.7v24.9c0,9.7-7.9,17.7-17.7,17.7h-3.5c-6,10.2-14.3,18.9-23.4,24.6v17.4h24.6c9.6,0,19.7,7.2,20,20.5h84.4
		c41.6,0,75.4,33.8,75.4,75.4v298.5c0,8.5-6.9,15.3-15.3,15.3H416.8z M478.2,496V339.6h-60.7V496H478.2z M478.2,323.6V198.2
		c0-32.8-26.7-59.5-59.5-59.5h-84.4v60.7H394c12.9,0,23.4,10.5,23.4,23.4v100.8H478.2z M34.2,260.2c-0.2,0-0.4,0.2-0.4,0.4v35
		c0,0.2,0.2,0.4,0.4,0.4h96.7c0.2,0,0.4-0.2,0.4-0.4v-35c0-0.2-0.2-0.4-0.4-0.4H34.2z M112.6,244.2v-18.1
		c0-14.7,11.9-26.6,26.6-26.6h38.6v-60.7h-66.5c-32.8,0-59.5,26.7-59.5,59.5v46H112.6z M193.7,212.5c0,4.1,3.3,7.4,7.4,7.4h109.9
		c4.1,0,7.4-3.3,7.4-7.4v-21h-44.9c-4.4,0-8-3.6-8-8c0-4.4,3.6-8,8-8h44.9v-53.3c0-2.2-1.8-4-4-4H197.7c-2.2,0-4,1.8-4,4v53.3h44.9
		c4.4,0,8,3.6,8,8c0,4.4-3.6,8-8,8h-44.9V212.5z M273.9,102.3V88.2h-35.6v14.1H273.9z M279.9,72.2c5-2.8,9.8-7,14-11.9h-77.6
		c4.5,5,9.9,9,15.9,11.9H279.9z M316.7,44.3c0.9,0,1.7-0.8,1.7-1.7V17.7c0-0.9-0.8-1.7-1.7-1.7h-26.9v28.4H316.7z M273.9,44.3V16
		h-35.6v28.4H273.9z M195.5,16c-0.9,0-1.7,0.8-1.7,1.7v24.9c0,0.9,0.8,1.7,1.7,1.7h26.9V16H195.5z"/>
	<path class="st0" d="M82.5,451c-17.3,0-32.9-9-41.5-24c-8.7-15-8.6-32.9,0.1-47.9l30.5-52.7c2.3-3.9,6.4-6.3,10.9-6.3
		c4.6,0,8.6,2.4,10.9,6.3l18.6,32.1c12.8,22.1,12.8,22.1,13.3,23.2l0.2,0.3c2,3.9,0.3,8.7-3.6,10.7c-1.1,0.6-2.3,0.8-3.5,0.8
		c-3.1,0-5.8-1.7-7.2-4.4l-0.1-0.2c-0.4-0.8-0.4-0.8-12.4-21.5l-16.2-28l-27.6,47.7c-5.8,10-5.8,21.9,0,32c5.8,10,16.1,16,27.7,16
		c12.3,0,23.3-6.9,28.7-18c1.3-2.7,4.1-4.5,7.2-4.5c1.2,0,2.4,0.3,3.5,0.8c4,1.9,5.6,6.7,3.7,10.7C117.5,440.6,101,451,82.5,451z"/>
</g>
</svg>
