<?xml version="1.0" encoding="utf-8"?>
<!-- Generator: Adobe Illustrator 21.0.0, SVG Export Plug-In . SVG Version: 6.00 Build 0)  -->
<svg version="1.1" id="Capa_1" xmlns="http://www.w3.org/2000/svg" xmlns:xlink="http://www.w3.org/1999/xlink" x="0px" y="0px"
	 width="563.4px" height="512px" viewBox="0 0 563.4 512" style="enable-background:new 0 0 563.4 512;" xml:space="preserve">
<style type="text/css">
	.st0{fill:#323335;}
</style>
<g>
	<path class="st0" d="M472,512v-37.8H91.4V512H37.8v-38.4l-1.2-0.2C15.4,469,0,450.1,0,428.5v-56.6c0-25.2,20.5-45.7,45.7-45.7
		h199.8V98.1c0-20,16.3-36.3,36.3-36.3c20,0,36.3,16.3,36.3,36.3v228.1h199.8c25.2,0,45.7,20.5,45.7,45.7v56.6
		c0,21.6-15.4,40.4-36.6,44.8l-1.2,0.2V512H472z M487.9,496.1h21.9v-21.9h-21.9V496.1z M53.6,496.1h21.9v-21.9H53.6V496.1z
		 M45.7,342.1c-16.4,0-29.8,13.4-29.8,29.8v56.6c0,16.4,13.4,29.8,29.8,29.8h472c16.4,0,29.8-13.4,29.8-29.8v-56.6
		c0-16.4-13.4-29.8-29.8-29.8H45.7z M261.3,326.2h40.8v-21.9h-40.8V326.2z M281.7,77.7c-11.2,0-20.4,9.1-20.4,20.4v190.3h40.8V98.1
		C302.1,86.9,293,77.7,281.7,77.7z"/>
	<path class="st0" d="M37.8,436.5V364h148v72.5H37.8z M53.6,420.6h116.3v-40.8H53.6V420.6z"/>
	<path class="st0" d="M404.4,427c-14.8,0-26.8-12-26.8-26.8s12-26.8,26.8-26.8s26.8,12,26.8,26.8S419.2,427,404.4,427z M404.4,389.3
		c-6,0-10.9,4.9-10.9,10.9s4.9,10.9,10.9,10.9s10.9-4.9,10.9-10.9S410.5,389.3,404.4,389.3z"/>
	<path class="st0" d="M480,427c-14.8,0-26.8-12-26.8-26.8s12-26.8,26.8-26.8s26.8,12,26.8,26.8S494.8,427,480,427z M480,389.3
		c-6,0-10.9,4.9-10.9,10.9s4.9,10.9,10.9,10.9s10.9-4.9,10.9-10.9S486,389.3,480,389.3z"/>
	<path class="st0" d="M328.9,427c-14.8,0-26.8-12-26.8-26.8s12-26.8,26.8-26.8c14.8,0,26.8,12,26.8,26.8S343.7,427,328.9,427z
		 M328.9,389.3c-6,0-10.9,4.9-10.9,10.9s4.9,10.9,10.9,10.9s10.9-4.9,10.9-10.9S335,389.3,328.9,389.3z"/>
	<path class="st0" d="M253.4,427c-14.8,0-26.8-12-26.8-26.8s12-26.8,26.8-26.8s26.8,12,26.8,26.8S268.2,427,253.4,427z M253.4,389.3
		c-6,0-10.9,4.9-10.9,10.9s4.9,10.9,10.9,10.9s10.9-4.9,10.9-10.9S259.4,389.3,253.4,389.3z"/>
	<path class="st0" d="M149.7,135.3c-2.1,0-4.1-0.8-5.6-2.4c-13.9-14.1-21.5-32.7-21.3-52.5c0.1-19.7,7.9-38.1,21.9-51.9l0.1-0.1
		c1.4-1.3,3.3-2,5.2-2c2,0,3.9,0.7,5.3,2.1c3.2,2.9,3.5,7.9,0.6,11.2l0,0c-22.7,22.5-23,59.3-0.5,82c1.5,1.5,2.3,3.5,2.3,5.6
		c0,2.1-0.9,4.1-2.4,5.6C153.8,134.5,151.8,135.3,149.7,135.3z"/>
	<path class="st0" d="M95.4,162.8c-2.2,0-4.2-0.9-5.7-2.4C46,117,45.7,46.1,89.1,2.3l0.2-0.2C90.8,0.8,92.7,0,94.7,0
		c2.1,0,4.1,0.8,5.6,2.3c3.1,3.1,3.1,8.1,0,11.2c-37.2,37.5-37,98.4,0.5,135.6l0.2,0.2c3,3.1,3,8.2-0.1,11.2
		C99.4,162,97.5,162.8,95.4,162.8C95.4,162.8,95.4,162.8,95.4,162.8z"/>
	<path class="st0" d="M205.3,109.3c-2,0-3.9-0.7-5.4-2.1v-0.9l-0.9,0c-13.8-14.1-13.7-36.8,0.2-50.8c1.5-1.5,3.5-2.3,5.6-2.3
		c2.1,0,4.1,0.8,5.6,2.3c3.1,3.1,3.1,8.1,0.1,11.2l0,0c-3.8,3.9-5.9,9-5.9,14.4c0,5.4,2.2,10.6,6,14.4c0.2,0.1,0.3,0.3,0.4,0.4
		c3,3.2,2.9,8.2-0.3,11.2C209.3,108.5,207.4,109.3,205.3,109.3L205.3,109.3z"/>
	<path class="st0" d="M413.7,135.4c-2.1,0-4.1-0.8-5.6-2.3c-3.1-3.1-3.2-8.1-0.1-11.2c10.9-11.1,16.9-25.7,16.7-41.2
		c-0.1-14.1-5.2-27.3-14.4-37.8l0.7,0.1l-3.6-3.2c-0.2-0.2-0.4-0.4-0.6-0.6c-2.9-3.2-2.7-8.3,0.5-11.2c1.5-1.3,3.4-2.1,5.3-2.1
		c2.2,0,4.4,0.9,5.9,2.6l0,0.1l0.1,0c29,28.6,29.3,75.5,0.7,104.5C417.9,134.5,415.9,135.4,413.7,135.4z"/>
	<path class="st0" d="M468.1,162.8c-2.2,0-4.2-0.9-5.7-2.4c-3-3.2-2.9-8.2,0.2-11.2c37.5-37.3,37.8-98.1,0.5-135.6
		c-3.1-3.1-3.1-8.1,0-11.2c1.5-1.5,3.5-2.3,5.6-2.3c2.1,0,4.1,0.8,5.6,2.3c43.4,43.7,43.1,114.6-0.6,158c-0.1,0.1-0.1,0.1-0.2,0.2
		C472.1,162,470.1,162.8,468.1,162.8L468.1,162.8z"/>
	<path class="st0" d="M358.3,109.1c-2.1,0-4.1-0.8-5.6-2.3c-3.1-3.1-3.1-8.1,0-11.2l0.1-0.1l0-0.1c3.8-3.8,5.9-8.9,6-14.3
		c0-5.4-2.1-10.6-5.9-14.4c-3.1-3.1-3.1-8.1,0-11.2c1.5-1.5,3.5-2.3,5.6-2.3c2.1,0,4.1,0.8,5.6,2.3c6.8,6.9,10.6,16,10.5,25.7
		c0,9.7-3.8,18.8-10.7,25.6C362.4,108.3,360.4,109.1,358.3,109.1L358.3,109.1z"/>
</g>
</svg>
