<?xml version="1.0" encoding="utf-8"?>
<!-- Generator: Adobe Illustrator 21.0.0, SVG Export Plug-In . SVG Version: 6.00 Build 0)  -->
<svg version="1.1" id="logosvg" xmlns="http://www.w3.org/2000/svg" xmlns:xlink="http://www.w3.org/1999/xlink" x="0px" y="0px"
	 width="429.1px" height="27.6px" viewBox="0 0 429.1 27.6" style="enable-background:new 0 0 429.1 27.6;" xml:space="preserve" stroke-width="1">
<style type="text/css">
	.st0{fill-rule:evenodd;clip-rule:evenodd;fill:#transparent;}
	#logosvg {
		fill:  rgb(50, 50, 53);
		stroke:#fff;
		stroke-dasharray: 418;
		animation: draw;
		animation-duration: 2s;
		animation-iteration-count: 1;
		animation-delay: 2.6s;
		animation-fill-mode: forwards;
		
	}
	@keyframes draw {
		from {
			fill:rgba(255,255,255,0);
		}
		to {
			fill:rgba(255,255,255,1);
		}
	}

	
</style>
<g>
	<path class="st0" d="M40.7,22.9V5.3c0-1-0.4-1.9-1.5-3.2c-1.1-1.3-2.3-1.9-4.7-1.9L11.6,0.1c-1,0-2.6,0.7-3.4,1.5c-0.9,1-2,2.7-2,5
		l0,12.9h5L11.2,6.5c0-0.4,0.4-1,0.8-1.4c0.5-0.4,1.3-0.5,2-0.5l16.9,0c0.4,0,1.8-0.1,2.5,0.6c0.8,0.7,0.7,1.6,0.7,1.6l0,16.1H0v4.7
		h44.3v-4.7H40.7z"/>
	<path class="st0" d="M72,0.1C56.7,0.1,52.4-1.8,52.3,13.8C52.1,29.4,57.6,27.6,72,27.6S91.5,29.2,91.6,14C91.6-1.2,87.4,0,72,0.1z
		 M72,4.1c9.9-0.1,13.9,0.1,14,8.8H57.9C58.1,4,62.2,4.2,72,4.1z M72,23.5c-11.2-0.1-14.1,0.2-14.2-9H86
		C85.7,23.1,83.1,23.6,72,23.5z"/>
	<path class="st0" d="M172.6,0.1c-15.4,0.1-19.6-1.9-19.7,13.8c-0.2,15.6,5.3,13.8,19.7,13.8s19.5,1.6,19.5-13.6
		C192.1-1.2,187.9,0,172.6,0.1z M172.5,4.2c9.8-0.1,13.9,0.1,14,8.7h-28.1C158.7,4,162.8,4.2,172.5,4.2z M172.5,23.5
		c-11.3-0.1-14.1,0.2-14.2-9.1h28.2C186.3,23.1,183.7,23.6,172.5,23.5z"/>
	<path class="st0" d="M136.4,0.2L136.4,0.2l-14.8,10.6L106.9,0.2h-6.3v27.5h6.3V6.2l29.4,21.5h6.3V0.2H136.4z M125.9,13.8l10.5-7.3
		v14.9L125.9,13.8z"/>
	<path class="st0" d="M265.5,0.1c-15.4,0.1-19.6-1.9-19.7,13.8c-0.2,15.6,5.3,13.8,19.7,13.8S285,29.2,285.1,14
		C285.1-1.2,280.9,0,265.5,0.1z M265.5,23.6c-11.5-0.1-14.2,0.2-14.2-9.7c0-9.2,3.5-9.6,12.2-9.7v16.6h4.4V4.2
		c8.3,0,11.6,0.9,11.5,9.5C279.4,23.1,277,23.6,265.5,23.6z"/>
	<path class="st0" d="M408.3,0.2l-4.4,0L387.5,24c-0.1,0.3-0.3,1.9,0,2.6c0.2,0.7,0.9,1,1.4,1.1h12.5c1,0,1.3-1,1.7-1.3
		c2.7-3.8,5.4-7.6,8-11.3l9.5,12.6l8.4,0L408.3,0.2z M408,13.4l-7.4,10.5c-0.4,0.8-0.7,0.6-1.4,0.7l-4.8,0c-1.2,0.1-0.9-1-0.6-1.5
		l10.6-15c0.7-0.6,1-0.7,1.5-0.3l2.6,3.3C409.1,12.2,408.5,12.5,408,13.4z"/>
	<path class="st0" d="M213.6,22.9c-0.5-0.1-0.9,0-1.5-0.3c-1.6-0.7-5.5-3.2-5.5-8.9c0-5.7,4-8,5.5-8.6c0,0,0.1,0,0.1-0.1
		c0.1,0,0.1-0.1,0.2-0.1c0.4-0.1,0.9-0.1,1.4-0.1h22.3V0.1h-23.7c0,0-0.6,0-1.5,0.2l0,0l0,0c-3.2,0.7-10.7,3.4-10.7,13.4
		c0,10.5,8.2,13.1,11.1,13.7l0,0l0,0c0.6,0.1,1,0.2,1,0.2v0h23.7v-4.7H213.6z"/>
	<g>
		<rect x="304.9" y="0.1" class="st0" width="28.7" height="4.4"/>
		<path class="st0" d="M301.5,16h32.2v-4.4h-30.6h-1.9h-2.4v0l-2.1,0c-1.2,0-2.2,0.6-2.2,1.9l-0.1,12.1c0.1,1.7,1,2,2.6,2v0h4.2v0
			h32.5v-4.4h-32.2c-0.5,0-0.8-0.1-0.8-0.6v-5.9C300.7,16.2,301.1,16,301.5,16z"/>
	</g>
	<path class="st0" d="M384.8,8.6c0-7-5.3-8.2-6.5-8.4v0l0,0c-0.1,0-0.2,0-0.2,0h-28.3v0h-6.3v27.5h6.3V16.8H378c0,0,0.1,0,0.4,0l0,0
		l0,0C379.8,16.5,384.8,15.3,384.8,8.6z M378.1,12.2l-0.7,0.1h-27.8V4.6h27.9l0.5,0.1c0.7,0.2,2.2,0.9,2.3,3.6
		C380.4,11,378.9,12,378.1,12.2z"/>
		
</g>
<animate id="p1" attributeName="stroke-dashoffset"  values="460; 0" dur="5s" repeatCount="" fill="freeze" calcMode="linear">
		</animate>
</svg>

